<?xml version="1.0" standalone="no"?>
<!DOCTYPE svg PUBLIC "-//W3C//DTD SVG 1.1//EN" "http://www.w3.org/Graphics/SVG/1.1/DTD/svg11.dtd" >
<svg>
<metadata>
Created by FontForge 20090622 at Wed Sep 21 08:58:55 2016
 By deploy user
Copyright (c) 2011-2012, Brownfox (www.brownfox.org gayaneh.b@gmail.com), with Reserved Font Name "Simonetta"
</metadata>
<defs>
<font id="Simonetta-Italic" horiz-adv-x="1568" >
  <font-face 
    font-family="Simonetta"
    font-weight="400"
    font-style="italic"
    font-stretch="normal"
    units-per-em="2048"
    panose-1="2 0 5 4 7 0 0 9 0 3"
    ascent="1638"
    descent="-410"
    x-height="897"
    cap-height="1391"
    bbox="-216 -545 1996 1927"
    underline-thickness="102"
    underline-position="-103"
    slope="-2"
    unicode-range="U+0020-U+FB04"
  />
<missing-glyph horiz-adv-x="477" 
d="M42 1264h393v-1264h-393v1264zM427 8v1248h-377v-1248h377z" />
    <glyph glyph-name=".notdef" horiz-adv-x="477" 
d="M42 1264h393v-1264h-393v1264zM427 8v1248h-377v-1248h377z" />
    <glyph glyph-name=".null" horiz-adv-x="0" 
 />
    <glyph glyph-name="nonmarkingreturn" horiz-adv-x="477" 
 />
    <glyph glyph-name="space" unicode=" " horiz-adv-x="447" 
 />
    <glyph glyph-name="exclam" unicode="!" horiz-adv-x="483" 
d="M362 1391q-12 -83 -22.5 -169l-20 -170.5t-17.5 -165l-15 -152.5q-16 -168 -27 -328h-58q-1 160 -5 328q-2 72 -4 152.5t-5.5 165t-7.5 170.5t-10 169q18 -2 44 -3.5t52 -1.5t51 1.5t45 3.5zM162 -20l-37 36q5 40 6.5 69t3.5 48q1 22 2 37l146 31l36 -37q-5 -41 -7.5 -69
t-3.5 -47q-2 -22 -1 -36z" />
    <glyph glyph-name="quotedbl" unicode="&#x22;" horiz-adv-x="724" 
d="M234 944h-80l-42 447h194zM594 944h-80l-42 447h194z" />
    <glyph glyph-name="numbersign" unicode="#" horiz-adv-x="1482" 
d="M615 1016h363l66 375h133l-67 -375h319l-12 -70h-91q-43 0 -101 -0.5t-127 -1.5l-84 -473h319l-13 -70h-91q-43 0 -101 -0.5t-127 -1.5l-70 -399h-133l70 397q-88 -1 -179 -3l-184 -4l-69 -390h-133l68 386q-89 -4 -167 -8t-139 -9l4 102h317l81 459q-89 -3 -167 -7.5
t-139 -9.5l4 103h317l66 375h133zM965 942q-88 -1 -180 -3l-185 -4l-81 -464h362z" />
    <glyph glyph-name="dollar" unicode="$" horiz-adv-x="980" 
d="M516 1554h73l-5 -137q64 -3 125 -14q91 -15 157 -35l-23 -301h-57l-27 205q-51 37 -114 55q-31 10 -64 14l-18 -532q65 -47 124 -94q61 -47 106.5 -100t73 -113t27.5 -133q0 -83 -38.5 -155.5t-102 -126.5t-145.5 -85q-37 -14 -75 -22l-7 -201h-72l6 193q-10 -1 -20 -1
q-106 0 -202 17t-167 39l25 317h61l17 -174q18 -18 49.5 -39t70.5 -39t82 -30q43 -11 87 -11l21 591l-44 36l-97 74.5t-99.5 89.5t-77.5 108t-31 131q0 55 17 114.5t60 109t117 81.5q72 31 182 33zM434 1332q-40 -13 -71 -39.5t-49 -65t-18 -88.5q0 -62 24.5 -109t63 -85
t85.5 -70l22 -16l17 487q-39 -2 -74 -14zM578 72q50 22 84.5 58t52.5 84t18 101q0 61 -28.5 112t-72.5 94q-36 36 -77 68l-19 -531q22 6 42 14z" />
    <glyph glyph-name="percent" unicode="%" horiz-adv-x="1344" 
d="M157 31l895 1234q-48 -24 -125.5 -43.5t-195.5 -19.5q-39 0 -84 3q12 -38 17 -79.5t5 -83.5q0 -67 -23.5 -142.5t-69 -140t-112 -107t-151.5 -42.5q-60 0 -101.5 25.5t-68 67.5t-38 96.5t-11.5 111.5q0 72 25.5 150t73.5 142t117 105.5t157 41.5q43 0 75 -14.5t55 -39.5
q28 -9 71.5 -16.5t105.5 -7.5q61 0 113 7t93.5 17t73 21.5t52.5 21.5l55 76l57 -39l-1003 -1392zM1259 432q0 -67 -23.5 -142.5t-69 -140t-112 -107t-151.5 -42.5q-60 0 -101.5 25.5t-68 67.5t-38 96t-11.5 112q0 48 11.5 99.5t33.5 100t54 92t73.5 76t91.5 51.5t109 19
q60 0 99 -26.5t62 -70t32 -98.5t9 -112zM1032 96q23 13 44 38.5t37 61t25.5 79t9.5 91.5q0 77 -22.5 148t-81.5 131h-135q-21 -14 -41.5 -40t-36.5 -61t-26 -78.5t-10 -91.5q0 -75 22 -146t78 -132h137zM442 707q23 12 44 38t37 61t25.5 78.5t9.5 91.5q0 77 -22 148t-82 131
h-135q-21 -13 -41.5 -38.5t-36 -61t-25.5 -78t-10 -90.5q0 -77 21 -147.5t78 -132.5h137z" />
    <glyph glyph-name="ampersand" unicode="&#x26;" horiz-adv-x="1036" 
d="M493 565q43 -3 85.5 -4.5t82.5 -1.5q99 0 190 10t179 33l-5 -133h-65t-59 1q-13 -61 -37.5 -121t-58.5 -114.5t-77 -101t-92.5 -80.5t-105 -53.5t-113.5 -19.5q-74 0 -131.5 30t-96.5 81t-59 117t-20 138q0 62 15.5 125.5t47.5 121.5t80.5 107t114.5 84
q-60 53 -89.5 121.5t-29.5 141.5q0 70 26.5 136.5t77.5 119t126 84.5t172 32q16 0 34.5 -1.5t37 -6.5t36.5 -13.5t33 -23.5l-25 -246h-45l-10 148q-42 26 -97.5 40.5t-119.5 14.5h-20.5t-20.5 -2q-53 -40 -76.5 -94t-23.5 -111q0 -43 12 -85t34.5 -79t54.5 -66t71 -46
l-4 -51q-71 -14 -121 -50.5t-82 -88t-47 -114t-15 -126.5q0 -50 8.5 -99t24.5 -93t39 -81t51 -63h181q56 28 89.5 76.5t53 104t29 113t15.5 104.5q-53 5 -114 13l-143 19z" />
    <glyph glyph-name="quotesingle" unicode="'" horiz-adv-x="363" 
d="M234 944h-80l-42 447h194z" />
    <glyph glyph-name="parenleft" unicode="(" horiz-adv-x="687" 
d="M716 1456q-117 -84 -212 -189.5t-162 -228t-103.5 -258.5t-36.5 -282q0 -128 28.5 -243t85 -222t141 -207t195.5 -197l-28 -45q-134 82 -239 179t-177 210t-110 244t-38 281q0 156 43 302.5t124.5 276t198.5 238t265 186.5z" />
    <glyph glyph-name="parenright" unicode=")" horiz-adv-x="687" 
d="M-31 -371q117 85 211.5 190.5t162 228t104 258.5t36.5 282q0 127 -28.5 242.5t-85 222t-141 206.5t-195.5 197l28 45q134 -82 239 -179t177 -210t110 -243.5t38 -280.5q0 -156 -43 -303t-124.5 -276.5t-198.5 -238t-265 -186.5z" />
    <glyph glyph-name="asterisk" unicode="*" horiz-adv-x="956" 
d="M112 1157q26 35 43 64l31 55l275 -205l-27 348q16 -2 33.5 -3t34.5 -1t36 0.5t37 3.5l-51 -352l293 207l33.5 -68.5t29.5 -54.5l-321 -133l309 -150q-8 -11 -17.5 -26l-20 -31l-20.5 -31.5l-18 -27.5l-272 213l23 -355q-11 0 -22 1q-10 0 -22 0.5t-24 0.5h-29t-41 -2
l56 353l-293 -209l-15.5 28.5l-17 32l-17 32t-16.5 27.5l326 142z" />
    <glyph glyph-name="plus" unicode="+" horiz-adv-x="1083" 
d="M495 696v422h99v-422h421v-98h-421v-422h-99v422h-422v98h422z" />
    <glyph glyph-name="comma" unicode="," horiz-adv-x="405" 
d="M-7 -281q32 48 52.5 91.5t32 87t15.5 87t4 91.5q0 21 -1 44.5t-3 47.5l152 33l39 -39q-3 -62 -26 -124.5t-58.5 -123t-81 -117.5t-94.5 -108z" />
    <glyph glyph-name="hyphen" unicode="-" horiz-adv-x="847" 
d="M705 545l-4 -115h-566l4 115h566z" />
    <glyph glyph-name="period" unicode="." horiz-adv-x="404" 
d="M125 -20l-37 36q5 40 6.5 69t3.5 48q1 22 2 37l146 31l36 -37q-5 -41 -7.5 -69t-3.5 -47q-2 -22 -1 -36z" />
    <glyph glyph-name="slash" unicode="/" horiz-adv-x="1017" 
d="M1003 1473l-881 -1829h-110l880 1829h111z" />
    <glyph glyph-name="zero" unicode="0" horiz-adv-x="1159" 
d="M592 1346q-74 0 -128.5 -30.5t-92.5 -81t-61.5 -115.5t-37 -133.5t-18 -135.5t-4.5 -121q0 -65 6.5 -141.5t21.5 -152.5t40.5 -146.5t63 -124.5t89 -86.5t119.5 -32.5q73 0 125 35.5t88.5 94t58.5 134t33.5 155.5t15.5 159t4 145q0 137 -19.5 233.5t-49.5 160.5
t-67.5 101t-73 55.5t-66 23t-47.5 4.5zM104 662q0 89 12 179t38 174.5t66.5 158t97 128t130 86t166.5 31.5q76 0 139.5 -25t114 -69t88 -104t62 -129t37 -144.5t12.5 -150.5q0 -77 -11 -168.5t-35 -183.5t-62 -177.5t-92 -151.5t-125.5 -105.5t-161.5 -39.5q-86 0 -154.5 27
t-121 75t-90.5 113.5t-62.5 142t-36 161.5t-11.5 172z" />
    <glyph glyph-name="one" unicode="1" horiz-adv-x="672" 
d="M47 1163q50 23 95.5 48t90.5 55t91 67.5t96 85.5h59l-43 -1317l146 -45v-57l-53 7q-26 2 -64 4.5t-88 2.5q-51 0 -112.5 -3t-135.5 -11v57q26 2 46 4t36.5 4t32.5 3t35 2l41 1169q-32 -20 -72 -42q-34 -19 -79 -41.5t-97 -43.5l-25 51v0z" />
    <glyph glyph-name="two" unicode="2" horiz-adv-x="977" 
d="M694 1053q0 64 -21.5 111.5t-57.5 79t-83.5 46.5t-99.5 15q-74 0 -148.5 -30t-129.5 -87l-37 39q35 48 80 84t95.5 60t104.5 36t107 12q70 0 134 -20.5t113 -62.5t78 -104.5t29 -146.5q0 -82 -34.5 -173t-112.5 -204.5t-205.5 -256t-313.5 -328.5l564 20l84 162l57 -8
l-23 -85.5t-17.5 -73t-13 -68t-9.5 -70.5h-803l-19 39l150.5 157l154.5 160.5t144.5 165t120 170t82 177t30.5 184.5z" />
    <glyph glyph-name="three" unicode="3" horiz-adv-x="990" 
d="M903 518q0 -78 -25.5 -149t-69.5 -131t-104 -109t-128 -83t-141.5 -52.5t-145.5 -18.5q-73 0 -139.5 19t-123.5 61l88 138q67 -56 146 -86.5t158 -30.5q65 0 124.5 22.5t105 70t72.5 121t27 175.5q0 125 -72.5 191.5t-203.5 66.5q-16 0 -35.5 -1.5t-40 -4.5t-40 -8
t-36.5 -11l-16 60l51 16q52 17 108 46t102 72.5t75.5 103.5t29.5 139q0 38 -12.5 72.5t-38 60.5t-64 41.5t-89.5 15.5q-48 0 -88 -12.5t-75.5 -33t-68 -46l-63.5 -51.5l-39 45q36 35 77 69.5t90.5 61.5t109.5 44t134 17q69 0 122 -17.5t88 -48.5t53 -74.5t18 -94.5
q0 -62 -26 -119.5t-64.5 -105t-82.5 -83.5t-79 -55q84 1 146 -23t103.5 -65.5t62 -97t20.5 -117.5z" />
    <glyph glyph-name="four" unicode="4" horiz-adv-x="1016" 
d="M604 455h-589l2 61l706 903l60 -33l-28 -830l87.5 5.5l68.5 4.5q33 3 60 5l-47 -116h-172l-12 -353l145 -45v-57l-50 7q-25 2 -62 4.5t-86 2.5q-50 0 -111 -3t-135 -11v57q26 2 45.5 4t36.5 4t33 3t34 2zM121 532q118 0 244.5 4.5t241.5 10.5l24 637z" />
    <glyph glyph-name="five" unicode="5" horiz-adv-x="957" 
d="M867 498q0 -74 -24 -141.5t-66 -125.5t-98.5 -105t-122 -80t-136.5 -51t-141 -18q-69 0 -134 19t-122 59l82 138q66 -56 144 -84.5t153 -28.5q62 0 119 19.5t100 60t68.5 102t25.5 144.5q0 154 -78.5 235.5t-234.5 81.5q-26 0 -55 -2t-58 -5t-55 -7t-45 -9l-18 19l84 672
h522l82 104l51 -20l-27.5 -57.5l-22 -47t-21 -50.5l-25.5 -69h-494l-55 -434q37 9 86.5 16t122.5 7t143.5 -19.5t126 -61t89.5 -106.5t34 -155z" />
    <glyph glyph-name="six" unicode="6" horiz-adv-x="1047" 
d="M912 1368q-102 -48 -200.5 -112.5t-182.5 -145t-149 -176.5t-101 -207q74 53 154 77.5t179 24.5q66 0 131 -21.5t116 -66.5t82.5 -116t31.5 -170q0 -116 -41.5 -206.5t-108.5 -152t-150 -93.5t-167 -32q-93 0 -170.5 34t-133 97.5t-86 155t-30.5 205.5q0 171 63 319
t171.5 269t254 213.5t310.5 154.5zM524 723q-78 0 -141.5 -19t-122.5 -51q-11 -42 -15.5 -82.5t-4.5 -87.5q0 -116 25.5 -199t67 -136t95 -78t109.5 -25q48 0 99 18.5t93 62t69 115.5t27 179q0 71 -20.5 127.5t-59.5 95.5t-95 59.5t-126 20.5z" />
    <glyph glyph-name="seven" unicode="7" horiz-adv-x="890" 
d="M143 51l163.5 289l173.5 309.5l169.5 314t151.5 302.5l-586 -21l-98 -190l-55 10q26 94 42 172.5t27 153.5h768l25 -33l-342 -742l-287 -645z" />
    <glyph glyph-name="eight" unicode="8" horiz-adv-x="1014" 
d="M896 1137q0 -59 -20.5 -113t-54 -102.5t-77 -92t-88.5 -81.5q49 -38 95 -78t81 -85.5t56.5 -98t21.5 -113.5q0 -91 -38 -165t-101.5 -126.5t-147 -81.5t-173.5 -29q-75 0 -142 21t-117.5 62t-80 100.5t-29.5 136.5q0 74 28 139.5t73 123.5t102 109.5t116 96.5
q-49 38 -91 75.5t-72.5 77t-48 83.5t-17.5 96q0 73 33.5 133.5t88 103.5t124.5 66.5t143 23.5q66 0 126.5 -17.5t107 -52.5t74.5 -88t28 -124zM454 719q-45 -33 -87 -72.5t-74.5 -86.5t-52.5 -101.5t-20 -118.5q0 -65 19.5 -119t55.5 -93t87 -61t113 -22q51 0 99 19t85 53.5
t59.5 82.5t22.5 107q0 70 -27 127t-67 103.5t-86 83l-84 65.5zM519 1346q-41 0 -78.5 -12.5t-66.5 -36.5t-46.5 -59.5t-17.5 -82.5q0 -56 29 -107t71 -95.5t89 -82l82 -65.5l24 -19q32 27 61.5 59t52 68t35.5 76.5t13 85.5q0 56 -19 105.5t-52 86t-78.5 58t-98.5 21.5z" />
    <glyph glyph-name="nine" unicode="9" horiz-adv-x="1040" 
d="M138 23q104 48 204.5 115t185.5 150.5t150 183.5t99 214q-74 -54 -155.5 -79t-180.5 -25q-65 0 -129 21.5t-114.5 66.5t-81.5 116t-31 170q0 116 40 203t105 144.5t147 86.5t166 29q93 0 170 -34t132.5 -97.5t86.5 -154.5t31 -205t-28.5 -218t-80.5 -196.5t-125 -173.5
t-162 -149.5t-191 -123.5t-212 -96zM529 688q82 0 144.5 19t121.5 53q8 37 11.5 72t3.5 75q0 116 -25.5 199t-67 136.5t-95 78.5t-109.5 25q-48 0 -98 -18.5t-90.5 -60t-66.5 -109.5t-26 -167q0 -71 20.5 -127.5t59 -95.5t93.5 -59.5t124 -20.5z" />
    <glyph glyph-name="colon" unicode=":" horiz-adv-x="446" 
d="M148 -20l-37 36q5 40 6.5 69t3.5 48q1 22 2 37l146 31l36 -37q-5 -41 -7.5 -69t-3.5 -47q-2 -22 -1 -36zM170 676l-37 36q5 40 6.5 69t3.5 48q1 22 2 37l146 31l36 -37q-5 -41 -7.5 -69t-3.5 -47q-2 -22 -1 -36z" />
    <glyph glyph-name="semicolon" unicode=";" horiz-adv-x="479" 
d="M170 676l-37 36q5 40 6.5 69t3.5 48q1 22 2 37l146 31l36 -37q-5 -41 -7.5 -69t-3.5 -47q-2 -22 -1 -36zM17 -281q32 48 52.5 91.5t32 87t15.5 87t4 91.5q0 21 -1 44.5t-3 47.5l152 33l39 -39q-3 -62 -26 -124.5t-58.5 -123t-81 -117.5t-94.5 -108z" />
    <glyph glyph-name="less" unicode="&#x3c;" horiz-adv-x="1117" 
d="M69 694l877 445l45 -88l-784 -400l784 -397l-45 -88l-877 444v84z" />
    <glyph glyph-name="equal" unicode="=" horiz-adv-x="1281" 
d="M1113 553v-98h-942v98h942zM1113 842v-99h-942v99h942z" />
    <glyph glyph-name="greater" unicode="&#x3e;" horiz-adv-x="1117" 
d="M1054 610l-877 -444l-45 88l785 397l-785 400l45 88l877 -445v-84z" />
    <glyph glyph-name="question" unicode="?" horiz-adv-x="740" 
d="M294 389l-41 49t-43.5 59t-34.5 62.5t-14 58.5q0 34 24.5 76.5t64 90t88 98.5l97.5 102l93 99t73 91q-5 36 -22 59.5t-43 36.5t-59.5 18t-70.5 5q-40 0 -79 -6.5t-74.5 -17t-66 -23.5t-54.5 -27l4 172q13 5 35.5 10t51 8.5t60.5 6t64 2.5q70 0 131 -17.5t106 -50
t71 -78.5t26 -102q0 -50 -26 -102t-67 -103.5t-91 -102l-98 -97.5l-88 -89.5t-62 -78.5q2 -12 11 -34.5t21 -48t26 -50.5t26 -43zM229 -20l-37 36q5 40 6.5 69t3.5 48q1 22 2 37l146 31l36 -37q-5 -41 -7.5 -69t-3.5 -47q-2 -22 -1 -36z" />
    <glyph glyph-name="at" unicode="@" horiz-adv-x="1535" 
d="M1063 141q64 13 122.5 53t102.5 100t70 137t26 165q0 110 -36 198t-102 149.5t-158.5 94.5t-206.5 33q-96 0 -183 -23.5t-161.5 -67t-135 -104.5t-103.5 -136.5t-66 -163.5t-23 -185q0 -141 44.5 -257t126 -198t196.5 -127t255 -45q58 0 113.5 7.5t110 23t111 39.5
t118.5 57l25 -59q-144 -77 -273 -114t-256 -37q-148 0 -275 50.5t-220 142t-146 217.5t-53 278q0 111 27 211.5t77 187t120.5 156t158 119t189 76t214.5 26.5q135 0 244 -39t186.5 -110.5t119.5 -173t42 -226.5q0 -108 -40 -206.5t-108.5 -174.5t-160.5 -121t-197 -45
l-30 31q3 21 7.5 61.5t9 89t8 99.5t5.5 92l-14 4q-34 -68 -79.5 -130.5t-97.5 -113t-107.5 -85.5t-108.5 -48l-90 31q-2 22 -3 42t-1 42q0 90 17.5 175t49 159.5t74 136t92.5 106t105.5 69t111.5 24.5q28 0 51 -1.5t45 -5t43.5 -8t45.5 -10.5q-9 -89 -14.5 -171.5t-8.5 -164
t-4.5 -163.5t-1.5 -169zM958 709q-24 8 -55 14t-59 6q-63 0 -110 -34t-78 -95.5t-46.5 -147t-15.5 -188.5v-46t2 -48q24 3 59 20t73.5 47.5t77.5 73t71 96t53.5 116.5t25.5 134z" />
    <glyph glyph-name="A" unicode="A" horiz-adv-x="1265" 
d="M694 1442l413 -1340l170 -45l-2 -57q-51 6 -110 9t-121 3q-66 0 -129.5 -3t-120.5 -9l2 57l142 13l-115 415h-39q-28 0 -72 -0.5t-99.5 -2.5t-119.5 -6t-131 -11l-129 -363l164 -45l-2 -57q-54 6 -103.5 10t-103.5 4t-112.5 -4t-129.5 -10l2 57q29 3 55 6l46.5 4t38.5 3
l85.5 188l90.5 214l92.5 232l91.5 241l87 241l79 233zM606 1169l-211 -614h407l-168 614h-28z" />
    <glyph glyph-name="B" unicode="B" horiz-adv-x="1131" 
d="M946 1106q0 -62 -19 -115t-49.5 -97.5t-68.5 -80t-76 -60.5q83 -21 143 -56t99 -80.5t57.5 -101t18.5 -118.5q0 -93 -33.5 -168.5t-92.5 -129t-140 -82.5t-175 -29q-40 0 -79.5 3.5t-80 8t-81 8.5t-82.5 4q-48 0 -102.5 -3t-122.5 -9l2 57q26 2 45.5 4t36.5 4t33 3t34 2
l41 1218l-147 45l2 58q24 -4 54 -8q26 -3 60 -5t74 -2q43 0 75.5 4t65.5 8.5t72 8.5t96 4q92 0 157 -25t105.5 -66t59 -94t18.5 -110zM369 104q38 -21 94.5 -40t134.5 -19q64 0 117 23t91 65t59.5 102t21.5 134t-22.5 138t-70 111t-121 74t-175.5 27q-54 0 -109 -6zM447 784
q101 0 185 -12q34 24 62.5 55t49.5 67.5t33 78.5t12 88q0 66 -18 117t-50 86t-75.5 53t-94.5 18q-25 0 -42 -0.5t-30.5 -1t-26.5 -2t-30 -2.5q-3 -29 -6.5 -72.5t-7 -94.5t-6.5 -105.5t-4 -104.5l-7 -168h56z" />
    <glyph glyph-name="C" unicode="C" horiz-adv-x="1412" 
d="M919 1346q-125 0 -240.5 -41t-204 -120.5t-141.5 -196t-53 -267.5q0 -112 28 -205t76 -167t112.5 -129.5t138 -92t152 -54.5t154.5 -18q48 0 88 3t80.5 10.5t84.5 20t99 30.5l19 -58q-53 -26 -113.5 -43t-119.5 -27.5t-113.5 -15t-96.5 -4.5q-109 0 -209 23.5t-186 66.5
t-156.5 105t-120.5 139.5t-77 168t-27 192.5q0 110 27 208.5t77.5 182t123 151t163 114.5t197 72t225.5 25q151 0 263 -17.5t198 -39.5l-29 -334h-61l-25 221q-27 19 -61.5 36.5t-76.5 31t-90.5 21.5t-104.5 8z" />
    <glyph glyph-name="D" unicode="D" horiz-adv-x="1566" 
d="M63 57q26 2 45.5 4t36.5 4t33 3t34 2l41 1218l-145 45v58q29 -4 63 -8q29 -3 67.5 -5t82.5 -2q55 0 111 4l113.5 8.5t118.5 8.5t126 4q153 0 280 -50t217.5 -142t140.5 -221t50 -286q0 -72 -15.5 -152.5t-51 -160t-94 -152t-143.5 -128t-200 -88.5t-264 -33
q-46 0 -97 3.5t-104 8t-107 8.5t-106 4q-29 0 -90.5 -1.5t-142.5 -10.5v57zM648 1327q-34 0 -68 -0.5t-65 -2t-58 -3.5t-46 -4l-43 -1215q27 -8 60.5 -16.5t71.5 -15.5t79 -12t82 -5q51 0 117 8t136 31t137.5 65.5t121 112.5t86 170.5t32.5 239.5q0 74 -11.5 150.5
t-39.5 148.5t-75 135.5t-118.5 110.5t-170 74.5t-228.5 27.5z" />
    <glyph glyph-name="E" unicode="E" horiz-adv-x="1052" 
d="M368 78l452 16l101 211h63l-78 -325q-106 3 -202.5 8.5t-176 10.5l-138.5 9t-89 4q-51 0 -108 -2t-131 -10l2 57q26 2 45.5 4t36.5 4t33 3t34 2l41 1218l-145 45v58q28 -4 71 -8q37 -3 93 -5t137 -2h241q40 0 78 0.5t77 2t81 4.5t90 8l-31 -338h-61l-29 225l-438 31
q-8 -82 -12 -166.5t-6 -155.5l-9 -225l426 22l-10 -127q-60 8 -122 14t-118 10t-103 6.5t-77 4.5z" />
    <glyph glyph-name="F" unicode="F" horiz-adv-x="991" 
d="M370 102l145 -45v-57l-52 7q-26 2 -64 4.5t-89 2.5t-112 -3t-135 -11v57q26 2 45.5 4t36.5 4t33 3t34 2l41 1218l-145 45v58q28 -4 71 -8q37 -3 93 -5t137 -2h241q40 0 78 0.5t77 2t81 4.5t90 8l-31 -338h-61l-29 225l-438 31q-8 -82 -11.5 -166.5l-6.5 -155.5l-9 -244
l428 23l-10 -127q-60 7 -122.5 13.5t-119.5 11t-104 7t-76 3.5z" />
    <glyph glyph-name="G" unicode="G" horiz-adv-x="1535" 
d="M897 1346q-132 0 -245 -46t-196 -131.5t-130 -208t-47 -276.5q0 -143 49 -259.5t134.5 -199t199.5 -127.5t245 -45q45 0 82 3.5t68 10t58 17t54 25.5l19 436l-148 45v57q22 -4 53 -7q26 -3 63.5 -5t88.5 -2t112.5 3t135.5 11v-57q-26 -2 -46 -4t-36.5 -3.5t-32.5 -2.5
t-34 -2l-19 -523q-44 -16 -103 -31t-122 -27t-124.5 -19t-109.5 -7q-99 0 -194.5 21.5t-181 63t-158.5 102.5t-125.5 140t-82.5 176t-30 210q0 168 60.5 304t167.5 232t254 147.5t321 51.5q151 0 263 -17.5t198 -39.5l-29 -334h-61l-25 221q-28 19 -62 36.5t-76 31
t-93.5 21.5t-114.5 8z" />
    <glyph glyph-name="H" unicode="H" horiz-adv-x="1636" 
d="M1085 57q26 2 45.5 4t36.5 4t33 3t34 2l21 622h-51t-110 -1t-153 -3.5t-180 -6t-190 -9t-184 -13.5l-19 -557l147 -45v-57l-52 7q-26 2 -64 4.5t-89 2.5t-112 -3t-135 -11v57q26 2 45.5 4t36.5 4t33 3t34 2l41 1218l-145 45v58q22 -4 52 -8q26 -3 63.5 -5t88.5 -2
t112.5 3.5t135.5 11.5v-58q-26 -2 -45.5 -4t-36.5 -3.5t-33 -2.5t-34 -2l-20 -559h866l18 526l-145 45v58q22 -4 52 -8q26 -3 63.5 -5t88.5 -2t112.5 3.5t135.5 11.5v-58q-26 -2 -45.5 -4t-36.5 -3.5t-33 -2.5t-34 -2l-41 -1219l145 -45v-57l-52 7q-26 2 -64 4.5t-89 2.5
t-112 -3t-135 -11v57v0z" />
    <glyph glyph-name="I" unicode="I" horiz-adv-x="614" 
d="M63 57q26 2 45.5 4t36.5 4t33 3t34 2l41 1218l-145 45v58q22 -4 52 -8q26 -3 63.5 -5t88.5 -2t112.5 3.5t135.5 11.5v-58q-26 -2 -45.5 -4t-36.5 -3.5t-33 -2.5t-34 -2l-41 -1219l145 -45v-57l-52 7q-26 2 -64 4.5t-89 2.5t-112 -3t-135 -11v57v0z" />
    <glyph glyph-name="J" unicode="J" horiz-adv-x="591" 
d="M358 102q-1 -17 -3.5 -46t-14.5 -69t-37 -90.5t-70 -112t-113 -133.5t-166 -153l-41 53q83 93 138.5 180.5t89 160.5t48 128t15.5 82l41 1186l-145 45v58q22 -4 52 -8q26 -3 63.5 -5t88.5 -2t112.5 3.5t135.5 11.5v-58q-26 -2 -46 -4t-36.5 -3.5t-32.5 -2.5t-34 -2z" />
    <glyph glyph-name="K" unicode="K" horiz-adv-x="1335" 
d="M433 733l161.5 157l145 146.5t128 140.5t110.5 138q-17 2 -37 5t-37 6q-20 4 -41 7v58q44 -7 97 -11t112 -4q53 0 110 3.5t114 11.5v-58l-168 -45l-543 -497l592 -689l174 -41v-61h-299zM63 57q26 2 45.5 4t36.5 4t33 3t34 2l41 1218l-145 45v58q22 -4 52 -8
q26 -3 63.5 -5t88.5 -2t112.5 3.5t135.5 11.5v-58q-26 -2 -45.5 -4t-36.5 -3.5t-33 -2.5t-34 -2l-41 -1219l145 -45v-57l-52 7q-26 2 -64 4.5t-89 2.5t-112 -3t-135 -11v57z" />
    <glyph glyph-name="L" unicode="L" horiz-adv-x="1034" 
d="M253 1288l-145 45v58q21 -4 52 -8q26 -3 64 -5t89 -2t112 3.5t135 11.5v-58q-26 -2 -45.5 -4t-36.5 -3.5t-33 -2.5t-34 -2l-45 -1243l477 16l113 228h63l-92 -342q-106 3 -206 8.5l-183.5 10.5l-145.5 9t-92 4q-51 0 -108 -2t-131 -10l2 57q26 2 45.5 4t36.5 4t33 3t34 2
z" />
    <glyph glyph-name="M" unicode="M" horiz-adv-x="1769" 
d="M1562 102l141 -45v-57l-52 7q-26 2 -64 4.5t-88 2.5q-51 0 -112.5 -3t-135.5 -11v57q26 2 45.5 4t36.5 4t33 3t34 2l-4 1026h-18l-510 -1041h-47l-449 1045h-16l-80 -998l154 -45v-57q-16 3 -42 7q-22 2 -55.5 4.5t-79.5 2.5t-104.5 -3t-132.5 -11v57q26 2 45.5 4t36.5 4
t33 3t34 2l146 1316l94 33l483 -1116h15l526 1094l100 20z" />
    <glyph glyph-name="N" unicode="N" horiz-adv-x="1615" 
d="M228 842q2 58 3 119t1 139q0 94 -2.5 167.5t-5.5 123.5l82 30l981 -1171l32 1038l-145 45v58q29 -4 62 -7q29 -2 65.5 -4t77.5 -2q45 0 93.5 3t100.5 10v-58q-47 -5 -79.5 -8t-69.5 -4l-10 -240t-9 -250t-7 -268.5t-3 -296.5q0 -63 0.5 -128.5t3.5 -137.5l-86 -29
l-981 1157l-26 -1025l145 -45v-58q-29 3 -62 6l-66 4.5t-77 2.5q-45 0 -93.5 -3t-100.5 -10v58q23 3 42.5 4.5t37 3t34.5 2.5l35 2z" />
    <glyph glyph-name="O" unicode="O" 
d="M280 711q0 -130 35 -250t102.5 -212.5t165.5 -148t223 -55.5q120 0 211.5 48t152.5 131.5t92 195t31 239.5q0 144 -36.5 269.5t-102 218.5t-157 146t-201.5 53q-57 0 -117 -12.5t-117.5 -42t-108.5 -77.5t-89.5 -118.5t-61 -165.5t-22.5 -219zM95 690q0 157 54 291
t152 231t235.5 152t304.5 55q102 0 189 -27.5t158 -76t126 -114.5t92.5 -142.5t56.5 -161.5t19 -170q0 -167 -54 -305.5t-147 -239t-216 -156t-261 -55.5q-119 0 -217.5 28.5t-177.5 79t-138 119t-98 148.5t-58.5 167.5t-19.5 176.5z" />
    <glyph glyph-name="P" unicode="P" horiz-adv-x="1087" 
d="M370 102l145 -45v-57l-52 7q-26 2 -64 4.5t-89 2.5t-112 -3t-135 -11v57q26 2 45.5 4t36.5 4t33 3t34 2l41 1218l-145 45v58q28 -4 60 -8q27 -3 61.5 -5t70.5 -2q34 0 65.5 4l66.5 8.5t76 8.5t95 4q114 0 197 -31.5t137 -84.5t79.5 -123t25.5 -148q0 -91 -35.5 -169
t-96.5 -135.5t-142.5 -90.5t-172.5 -33q-31 0 -55.5 2.5t-42.5 7.5l2 63q33 -6 67 -6q70 0 128 25.5t100 71t65 108.5t23 137q0 160 -89.5 250t-269.5 90q-34 0 -61 -2.5t-53 -7.5z" />
    <glyph glyph-name="Q" unicode="Q" 
d="M1449 -326q-20 -25 -46.5 -53t-56 -54t-60 -47.5t-58.5 -33.5q-53 3 -106 20.5t-102 41.5t-92 51l-75 48l-362 236l-150 -33l-16 48q16 8 39 16t48 14.5t50 10.5t45 4q27 0 58 -4.5t69 -16.5t84.5 -33t103.5 -53l174 -96.5l122 -65t83 -39.5t58 -20q23 10 42.5 20
t37.5 21.5l36 23.5l39 27zM280 711q0 -130 35 -250t102.5 -212.5t165.5 -148t223 -55.5q120 0 211.5 48t152.5 131.5t92 195t31 239.5q0 144 -36.5 269.5t-102 218.5t-157 146t-201.5 53q-57 0 -117 -12.5t-117.5 -42t-108.5 -77.5t-89.5 -118.5t-61 -165.5t-22.5 -219z
M95 690q0 157 54 291t152 231t235.5 152t304.5 55q102 0 189 -27.5t158 -76t126 -114.5t92.5 -142.5t56.5 -161.5t19 -170q0 -167 -54 -305.5t-147 -239t-216 -156t-261 -55.5q-119 0 -217.5 28.5t-177.5 79t-138 119t-98 148.5t-58.5 167.5t-19.5 176.5z" />
    <glyph glyph-name="R" unicode="R" horiz-adv-x="1181" 
d="M1207 0h-288l-362 640l-17 -3q-13 -1 -27 -1.5t-31.5 -1t-41 -1t-54.5 -0.5l-18 -531l147 -45v-57l-52 7q-26 2 -64 4.5t-89 2.5t-112 -3t-135 -11v57q26 2 45.5 4t36.5 4t33 3t34 2l41 1218l-145 45v58q27 -4 59 -8q27 -3 61.5 -5t71.5 -2q34 0 65 4l64 8.5t70 8.5t82 4
q120 0 205 -29.5t139 -79t79 -113t25 -130.5q0 -91 -32 -156.5t-79.5 -110.5t-101.5 -72.5t-98 -42.5l326 -565l166 -45zM388 702h58q125 0 207 29.5t130 77.5t67.5 110t19.5 128q0 48 -16 99t-54 93t-102 69t-160 27q-35 0 -64.5 -2t-64.5 -8z" />
    <glyph glyph-name="S" unicode="S" horiz-adv-x="997" 
d="M474 51q64 0 114 21.5t84.5 57.5t52.5 84t18 101q0 61 -28.5 112t-72 94.5t-95 81.5l-97.5 75l-97 74.5t-99.5 89.5t-77.5 108t-31 131q0 55 17 114.5t60 109t117.5 82t190.5 32.5q98 0 189 -15.5t157 -35.5l-23 -301h-57l-27 205q-51 37 -113.5 55.5t-127.5 18.5
q-44 0 -84 -13.5t-71 -40t-49 -65t-18 -88.5q0 -62 24.5 -109t63 -85t85.5 -70l92 -64l126.5 -95.5t106 -100.5t73 -113t27.5 -133q0 -83 -38.5 -155.5t-102 -126.5t-145 -85t-168.5 -31q-106 0 -202 17t-167 39l25 317h61l17 -174q18 -18 49.5 -39t70.5 -39t82.5 -29.5
t87.5 -11.5z" />
    <glyph glyph-name="T" unicode="T" horiz-adv-x="1206" 
d="M555 1309l-385 18l-72 -260h-59l41 336q114 -9 195.5 -10.5t144.5 -1.5q136 0 259.5 0.5t226.5 2t182.5 4t127.5 7.5l-31 -338h-61l-29 219l-387 17l-39 -1201l146 -45v-57l-53 7q-26 2 -64 4.5t-88 2.5q-51 0 -112.5 -3t-135.5 -11v57q26 2 46 4t37 4t33 3t34 2z" />
    <glyph glyph-name="U" unicode="U" horiz-adv-x="1498" 
d="M78 1391q22 -4 52 -8q26 -3 63.5 -5t88.5 -2t112.5 3.5t135.5 11.5v-58q-26 -2 -45.5 -4t-36.5 -3.5t-33 -2.5t-34 -2l-10.5 -305.5t-8 -219t-5.5 -148.5t-3 -93.5l-1.5 -54t-0.5 -29.5q0 -206 98.5 -310t309.5 -104q205 0 313 118t117 360l28 753l-147 45v58
q20 -4 47 -8q23 -3 58.5 -5t84.5 -2q48 0 108 3.5t134 11.5v-58q-26 -2 -46 -4t-36.5 -3.5t-32.5 -2.5t-34 -2l-68 -796q-23 -269 -154.5 -411.5t-386.5 -142.5q-125 0 -227 26t-174.5 79.5t-112 134t-39.5 190.5q0 21 1.5 63.5l3.5 99.5l4.5 124t5.5 137.5l6 140l5.5 131
t4 111l2.5 80.5l-147 45v58v0z" />
    <glyph glyph-name="V" unicode="V" horiz-adv-x="1329" 
d="M683 186h12l412 1102l-117 45v58q27 -4 60 -7q28 -2 64.5 -4t78.5 -2q12 0 36 0.5t53 2t60.5 4t58.5 6.5v-58q-26 -2 -45.5 -4t-36.5 -3.5t-33 -2.5t-34 -2l-565 -1335l-80 -17l-463 1319l-145 45v58q23 -4 55 -8q27 -3 66.5 -5t91.5 -2q51 0 113 3.5t136 11.5v-58
q-26 -2 -45.5 -4t-36.5 -3.5t-33 -2.5t-34 -2z" />
    <glyph glyph-name="W" unicode="W" horiz-adv-x="1883" 
d="M1010 1237l295 -981h13l331 1032l-120 45v58q16 -4 41 -8q21 -3 53.5 -5t79.5 -2q46 0 104.5 3.5t132.5 11.5v-58q-26 -2 -45.5 -4t-36.5 -3.5t-33 -2.5t-34 -2l-484 -1335l-79 -17l-289 963l-326 -946l-80 -17l-370 1319l-156 45v58q23 -4 55 -8q27 -3 66.5 -5t91.5 -2
q51 0 113.5 3.5t136.5 11.5v-58q-26 -2 -46 -4t-37 -3.5t-33 -2.5t-34 -2l289 -1065h12l330 963z" />
    <glyph glyph-name="X" unicode="X" horiz-adv-x="1182" 
d="M528 696l-315 592l-164 45v58q23 -4 56 -8q28 -3 68.5 -5t93.5 -2q52 0 114.5 3.5t136.5 11.5v-58q-26 -2 -45.5 -4t-36.5 -3.5t-33 -2.5t-34 -2l257 -475l267 442l-139 45v58q18 -4 45 -8q23 -3 58 -5t83 -2t108 2.5t134 12.5v-58q-37 -6 -64.5 -8t-64.5 -4l-385 -552
l362 -667l152 -45v-57l-56 7q-28 2 -68.5 4.5t-92.5 2.5q-53 0 -115.5 -3t-136.5 -11v57q26 2 46 4t36.5 4t32.5 3t34 2l-292 548l-316 -516l140 -45v-57l-46 7q-23 2 -58 4.5t-83 2.5t-107.5 -3t-134.5 -11v57q35 5 63.5 8t65.5 5z" />
    <glyph glyph-name="Y" unicode="Y" horiz-adv-x="1244" 
d="M705 608l-17 -506l146 -45v-57l-53 7q-26 2 -64 4.5t-88 2.5q-51 0 -112.5 -3t-135.5 -11v57q26 2 46 4t37 4t33 3t34 2l12 536l-395 682l-170 43v58q25 -4 58 -8q29 -3 69.5 -5t93.5 -2t115.5 3.5t136.5 11.5v-58q-26 -3 -46 -5t-37 -3.5t-33 -2t-34 -1.5l353 -623h16
l338 592l-150 43v58q20 -4 49 -8q25 -3 61.5 -5t86.5 -2t109.5 3.5t134.5 11.5v-58q-42 -5 -73.5 -8t-68.5 -4z" />
    <glyph glyph-name="Z" unicode="Z" horiz-adv-x="1288" 
d="M47 0l2 61l965 1272l-733 -49l-115 -223h-63l67 330h1024l-2 -66l-944 -1268l790 45l119 258h68l-78 -360h-1100z" />
    <glyph glyph-name="bracketleft" unicode="[" horiz-adv-x="545" 
d="M483 -356h-350l63 1829h350l-2 -70h-227l-60 -1690h228z" />
    <glyph glyph-name="backslash" unicode="\" horiz-adv-x="1135" 
d="M1064 -356h-110l-881 1829h111z" />
    <glyph glyph-name="bracketright" unicode="]" horiz-adv-x="545" 
d="M227 -287l59 1690h-227l2 70h350l-63 -1829h-350l2 69h227z" />
    <glyph glyph-name="asciicircum" unicode="^" horiz-adv-x="745" 
d="M184 920h-114l301 471h71l303 -471h-114l-223 350z" />
    <glyph glyph-name="underscore" unicode="_" horiz-adv-x="1642" 
d="M197 -303h1188l-4 -98h-1188z" />
    <glyph glyph-name="grave" unicode="`" horiz-adv-x="594" 
d="M442 1133l-340 311q34 25 63.5 49.5t55.5 50.5l271 -373z" />
    <glyph glyph-name="a" unicode="a" horiz-adv-x="978" 
d="M611 14q4 25 9.5 72.5t11 104.5t10 116t6.5 107l-16 4q-40 -79 -93.5 -152t-114.5 -131.5t-125.5 -99t-125.5 -55.5l-106 34q-4 25 -4.5 49.5t-0.5 49.5q0 106 20.5 205.5t57.5 186.5t86.5 159t108.5 124t123.5 80.5t130.5 28.5q32 0 59.5 -2t52.5 -5.5t50 -9t53 -12.5
q-9 -103 -15.5 -201t-10.5 -195.5t-5.5 -195t-1.5 -198.5q69 9 166 53l18 -39q-31 -21 -76 -41.5t-90.5 -36t-84.5 -25t-58 -9.5zM661 772q-31 9 -70 17t-74 8q-77 0 -135 -43t-96.5 -119.5t-58 -183.5t-19.5 -234q0 -28 1 -56t3 -57q30 4 73.5 25.5t91 59t95.5 90t87 118.5
t65.5 144t31.5 166z" />
    <glyph glyph-name="b" unicode="b" horiz-adv-x="910" 
d="M303 600q42 57 84 105t88 85.5t98.5 64.5t116.5 42l86 -35q31 -65 44 -131t13 -131q0 -82 -19.5 -159.5t-54 -146.5t-81.5 -126.5t-102.5 -99t-117 -65t-123.5 -23.5q-36 0 -65 2.5t-55 7t-51.5 11.5l-53.5 15l18 209.5t17 209.5t15 218.5t12 238t8 267.5t4 307
q-29 -4 -60 -7q-26 -3 -57 -5t-57 -4l-4 43l303 61l33 -34q-2 -3 -5 -43t-7.5 -107l-10 -156t-11 -190l-11.5 -208.5t-11 -211.5zM264 104q31 -9 69.5 -16.5t73.5 -7.5q69 0 124 33.5t93.5 90.5t59 132t20.5 158q0 71 -15.5 141.5t-49.5 138.5q-44 -1 -105.5 -33t-119 -92.5
t-99 -148.5t-45.5 -201z" />
    <glyph glyph-name="c" unicode="c" horiz-adv-x="731" 
d="M662 238l-65 -58.5t-88 -69.5t-111.5 -70t-134.5 -60l-76 34q-62 66 -89.5 151.5t-27.5 176.5q0 67 15 134.5t44 129.5t71 115t95.5 92t117.5 61.5t137 22.5q51 0 110 -12l-33 -123q-50 14 -90.5 22t-75 11.5t-65 4.5t-59.5 1q-34 -26 -58.5 -64.5t-40 -86t-23 -101.5
t-7.5 -109q0 -48 5.5 -95t17 -90.5t29 -82t42.5 -68.5q85 13 164 57t170 113z" />
    <glyph glyph-name="d" unicode="d" horiz-adv-x="978" 
d="M825 1520q-10 -99 -18 -198.5t-13.5 -204t-9.5 -218t-6 -241t-3 -271t-1 -309.5q69 9 164 53l21 -39q-31 -21 -76 -41.5t-90.5 -36t-85 -25t-58.5 -9.5l-35 34q8 69 13.5 140t10.5 129q5 68 9 131l-16 4q-40 -79 -93.5 -152t-114.5 -131.5t-125.5 -99t-125.5 -55.5
l-106 34q-4 23 -4.5 47.5t-0.5 47.5q0 96 19 191.5t53 183t82 163t107 131t126 87.5t140 32q22 0 40.5 -1t35.5 -3l2 573q-29 -4 -60 -7q-26 -3 -57 -5t-57 -4l-5 43l304 61zM660 772q-31 9 -70 17t-74 8q-77 0 -135 -43.5t-96.5 -121.5t-58 -184.5t-19.5 -232.5
q0 -28 1 -55.5t3 -55.5q30 4 73.5 25.5t91 59t95.5 90t87 118.5t65.5 144t31.5 166z" />
    <glyph glyph-name="e" unicode="e" horiz-adv-x="749" 
d="M677 733q-43 -66 -110 -127q-29 -26 -65 -54t-81 -54t-98 -49.5t-115 -41.5q3 -87 25 -167.5t69 -135.5q85 13 164 57t170 113l26 -36l-65 -58.5t-88 -69.5t-111.5 -70t-134.5 -60l-76 34q-63 66 -90 151.5t-27 176.5q0 102 34 201.5t95.5 178t147.5 127t190 48.5
q16 0 34.5 -1.5t37 -6.5t37 -13.5t33.5 -23.5zM560 750q-45 27 -91.5 38.5t-97.5 11.5h-13.5t-14.5 -1q-32 -24 -56.5 -60.5t-41.5 -81t-26.5 -95t-10.5 -102.5q108 47 176.5 98t107.5 94q46 50 68 98z" />
    <glyph glyph-name="f" unicode="f" horiz-adv-x="611" 
d="M122 -437q12 30 23 69.5t20.5 91.5t16.5 117.5t10 147.5q1 25 2.5 76l3.5 118.5l4.5 147.5l5 162l5 162l4.5 148q-56 8 -103 16t-76 15l2 43h180q2 54 4 94.5t4 60.5q10 139 41 238t77.5 162t107 92.5t129.5 29.5q38 0 87.5 -5.5t92.5 -16.5l-5 -149q-49 19 -98.5 31.5
t-94 19.5t-81 9.5t-59.5 2.5q-12 -30 -23.5 -69.5t-21 -91.5t-16.5 -117.5t-9 -147.5l-4 -140q75 2 139.5 4.5t112.5 6.5l-4 -125q-48 0 -113.5 5.5t-137.5 13.5l-4.5 -149.5l-5 -162.5t-5.5 -161.5l-5.5 -146.5l-4.5 -116.5t-4 -71.5q-10 -139 -41 -238t-77.5 -162
t-107 -92.5t-129.5 -29.5q-38 0 -87.5 5.5t-92.5 16.5l4 154q49 -19 99 -32t94.5 -21t81 -11.5t59.5 -3.5z" />
    <glyph glyph-name="g" unicode="g" horiz-adv-x="933" 
d="M65 14q-4 23 -4.5 46t-0.5 46q0 95 19 190.5t53 183t82 164t107 132.5t126 88.5t140 32.5q38 0 68 -2.5t55 -6.5t47 -9t45 -11q-11 -117 -16.5 -230t-9 -221t-5.5 -210.5t-6 -198.5q-11 -278 -138 -415.5t-358 -137.5q-19 0 -43 1.5t-49 4.5t-50 7t-46 9l4 154
q45 -14 95.5 -25t101.5 -18.5t98.5 -11.5t85.5 -4q20 0 36.5 1t29.5 3q30 25 49.5 80t31 128t17.5 157t8.5 169t3.5 163.5t4 140.5l-16 4q-40 -79 -93.5 -152t-114.5 -131.5t-125.5 -99t-125.5 -55.5zM659 772q-31 9 -70 17t-74 8q-77 0 -135 -44.5t-96.5 -123t-58 -185.5
t-19.5 -231q0 -26 1 -53.5t3 -55.5q30 4 73.5 25.5t91 59t95.5 90t87 118.5t65.5 144t31.5 166z" />
    <glyph glyph-name="h" unicode="h" horiz-adv-x="1009" 
d="M328 1520q-23 -214 -37 -447.5l-31 -501.5l16 -4q45 59 97 112.5t109.5 96.5t119 74.5t125.5 46.5l76 -35q14 -54 19 -112.5t5 -120.5q0 -69 -4.5 -140.5t-10 -142t-10 -138.5t-3.5 -130q34 5 78 18t92 35l20 -39q-31 -21 -76 -41.5t-90.5 -36t-84.5 -25t-58 -9.5l-35 34
l16.5 134.5t15 139.5t11 139.5t4.5 135.5q0 57 -3.5 109t-12.5 100q-33 0 -76 -17t-88 -46t-88.5 -68t-77.5 -81.5t-55 -87t-21 -85.5v-387h-159q15 142 26.5 285.5t16.5 298.5q4 121 6.5 240.5t4 232.5t2.5 216.5t1 192.5q-29 -4 -60 -7q-26 -3 -57 -5t-57 -4l-4 43l303 61
l35 -34v0z" />
    <glyph glyph-name="i" unicode="i" horiz-adv-x="526" 
d="M355 862q-15 -115 -23.5 -217.5t-13 -197.5t-5.5 -186t-1 -183q34 5 78 18t92 35l20 -39q-31 -21 -77 -41.5t-92.5 -36t-86.5 -25t-59 -9.5l-35 34q16 115 25 219.5t13 201.5t4.5 189.5t0.5 184.5q-29 -4 -60 -7q-26 -3 -57 -5t-57 -4l-4 43l303 61zM238 1129l-37 36
q5 40 6.5 69t3.5 48q1 22 2 37l146 31l36 -37q-5 -41 -7.5 -69t-3.5 -47q-2 -22 -1 -36z" />
    <glyph glyph-name="j" unicode="j" horiz-adv-x="485" 
d="M364 862q-29 -232 -39 -451.5t-16 -408.5q-1 -33 -20 -79.5t-49 -99t-67 -108l-73 -105l-68.5 -90.5l-52.5 -65l-40 33q14 20 36.5 57l48.5 83.5l53 98.5t49 102.5t37 95.5t17 77q7 106 11.5 219t6.5 220t3 202t3 166q-30 -4 -60 -7q-26 -3 -56.5 -5t-57.5 -4l-4 43
l303 61zM245 1129l-37 36q5 40 6.5 69t3.5 48q1 22 2 37l146 31l36 -37q-5 -41 -7.5 -69t-3.5 -47q-2 -22 -1 -36z" />
    <glyph glyph-name="k" unicode="k" horiz-adv-x="924" 
d="M294 608q74 107 177.5 182.5t231.5 106.5l76 -35q0 -66 -11 -131t-39.5 -125.5t-78 -116t-127.5 -102.5l211 -309q34 5 69 15t83 32l20 -39q-31 -21 -69.5 -40.5t-77 -34t-71.5 -23t-52 -8.5l-246 366q61 43 105.5 95.5t74.5 108.5t45 113.5t17 110.5q-24 -3 -60 -18
t-75.5 -40t-79 -58t-71 -70t-51.5 -76.5t-20 -77.5q-1 -32 -1.5 -84t-0.5 -112v-122v-116h-159q13 113 22.5 238.5t15.5 256t9.5 262t5 257t2 240.5t0.5 212q-29 -4 -60 -7q-26 -3 -57 -5t-57 -4l-4 43l303 61l35 -34q-23 -211 -35 -436.5t-17 -471.5l17 -4v0z" />
    <glyph glyph-name="l" unicode="l" horiz-adv-x="486" 
d="M336 1520q-13 -113 -22 -236.5t-15 -251.5t-10 -256.5t-6 -251t-2.5 -236t-0.5 -210.5q69 9 164 53l21 -39q-31 -21 -76 -41.5t-90.5 -36t-85 -25t-58.5 -9.5l-34 34q13 113 22.5 237.5t15.5 253t9.5 258.5t5 254t2 238t0.5 211q-29 -4 -60 -7q-26 -3 -57 -5t-57 -4
l-4 43l303 61l35 -34v0z" />
    <glyph glyph-name="m" unicode="m" horiz-adv-x="1511" 
d="M1492 92q-31 -21 -76 -41.5t-90.5 -36t-85 -25t-58.5 -9.5l-35 34l16.5 134.5t15.5 139.5t11.5 139.5t4.5 135.5q0 57 -4 110t-13 101q-33 0 -73 -19t-80.5 -51t-78.5 -74.5t-67.5 -88t-47 -92t-17.5 -87.5v-362h-160q22 139 32.5 285t10.5 299q0 49 -5.5 98.5
t-13.5 91.5q-33 0 -73 -19t-80.5 -51t-78.5 -74.5t-67.5 -88t-47 -92t-17.5 -87.5v-362h-160q22 139 32.5 285t10.5 299q0 54 -1 90.5t-2.5 62t-4 42l-4.5 30.5q-29 -4 -60 -7q-26 -3 -57 -5t-57 -4l-4 43l303 61l33 -35q0 -8 -2 -30t-5.5 -51l-7.5 -61.5t-8.5 -62t-8.5 -53
t-7 -33.5l16 -4q45 59 90.5 112.5t95.5 96.5t105 74.5t119 46.5l75 -35q11 -46 16 -93t5 -93q0 -27 -1 -53.5t-3 -52.5q44 58 89.5 111t95 95.5t104.5 74t118 46.5l76 -35q14 -54 19.5 -112.5t5.5 -120.5q0 -69 -5 -140.5t-10.5 -142t-10 -138.5t-3.5 -130q34 5 78 18t92 35
z" />
    <glyph glyph-name="n" unicode="n" horiz-adv-x="1052" 
d="M1033 92q-31 -21 -76 -41.5t-90.5 -36t-84.5 -25t-58 -9.5l-35 34q7 65 15.5 134.5t15.5 139.5t11.5 139.5t4.5 135.5q0 57 -3.5 110t-13.5 101q-33 0 -76 -17.5t-88 -46.5t-88.5 -68t-77 -82t-54.5 -87.5t-21 -85.5v-387h-160q22 139 32.5 285t10.5 299q0 54 -1 90.5
t-2.5 62t-4 42l-4.5 30.5q-29 -4 -60 -7q-26 -3 -57 -5t-57 -4l-4 43l303 61l33 -35q0 -8 -2 -30t-5.5 -51l-7.5 -61.5t-8.5 -62t-8.5 -53t-7 -33.5l16 -4q45 59 97 112.5t109.5 96.5t119 74.5t125.5 46.5l75 -35q14 -54 19.5 -112.5t5.5 -120.5q0 -69 -5 -140.5t-10.5 -142
t-10 -138.5t-3.5 -130q34 5 78 18t92 35z" />
    <glyph glyph-name="o" unicode="o" horiz-adv-x="864" 
d="M783 516q0 -55 -13 -116.5t-39 -121t-63.5 -113.5t-86.5 -95t-109.5 -65.5t-130.5 -24.5q-74 0 -125.5 31.5t-84 83.5t-47 119.5t-14.5 139.5q0 59 14 122.5t41 124t67 114.5t91 94.5t113.5 64t134.5 23.5q74 0 122.5 -33t77.5 -86.5t40.5 -122t11.5 -139.5zM509 82
q28 18 54.5 52t47.5 79.5t33.5 101.5t12.5 119q0 98 -29.5 189t-100.5 170h-180q-28 -18 -55 -52t-48 -79.5t-33.5 -102t-12.5 -119.5q0 -97 29.5 -188.5t100.5 -169.5h181z" />
    <glyph glyph-name="p" unicode="p" horiz-adv-x="944" 
d="M125 -510q12 131 23.5 275.5t20.5 306.5t14.5 345t5.5 392q-29 -4 -60 -7q-26 -3 -57 -5t-57 -4l-4 43l303 61l35 -35q-3 -21 -5.5 -42l-5.5 -46l-6.5 -56t-7.5 -71l16 -4q44 51 87.5 91t90 70.5t97.5 53.5t108 39l86 -35q29 -62 43.5 -127.5t14.5 -130.5q0 -80 -19 -157
t-52.5 -146.5t-80 -128t-102 -101.5t-117.5 -67t-127 -24q-23 0 -41.5 1t-34.5 3l-8 -441q29 3 60 7q26 3 56.5 5.5t57.5 4.5l4 -43l-303 -62zM297 104q31 -9 70 -16.5t74 -7.5q73 0 128.5 35.5t92.5 94t55.5 134t18.5 154.5q0 74 -16 145t-48 131q-29 0 -67 -13.5
t-78 -38.5t-79 -60t-69.5 -79.5t-50.5 -96.5t-22 -111z" />
    <glyph glyph-name="q" unicode="q" horiz-adv-x="924" 
d="M591 -510q2 12 5 53t6.5 101l7.5 133.5l8.5 151t8.5 154.5l7.5 142.5t6.5 115t5 73.5l-16 4q-40 -79 -93.5 -152t-114.5 -131.5t-125.5 -99t-125.5 -55.5l-106 34q-2 23 -3.5 45t-1.5 45q0 96 18.5 192.5t53 184.5t82.5 164t106.5 132t126 88t140.5 32q32 0 58 -2
t50 -5.5t47.5 -9l51.5 -12.5q-5 -51 -10 -124.5t-9 -160t-7.5 -183.5t-6 -195.5t-4.5 -195.5t-3.5 -183.5t-2 -159t-0.5 -123.5q29 3 60 7q26 3 56.5 5.5t57.5 4.5l4 -43l-303 -62zM659 772q-31 9 -70 17t-74 8q-77 0 -135 -43t-96.5 -120t-58 -183.5t-19.5 -233.5
q0 -28 1 -56t3 -57q30 4 73.5 25.5t91 59t95.5 90t87 118.5t65.5 144t31.5 166z" />
    <glyph glyph-name="r" unicode="r" horiz-adv-x="698" 
d="M681 721q-17 4 -38 4q-41 0 -81 -16t-76.5 -43t-68 -61.5t-54.5 -72.5t-36 -75.5t-13 -69.5v-387h-160q22 139 32.5 285t10.5 299q0 54 -1 90.5t-2.5 62t-4 42l-4.5 30.5q-29 -4 -60 -7q-26 -3 -57 -5t-57 -4l-4 43l303 61l33 -35q0 -8 -2 -30t-5.5 -51l-7.5 -61.5
t-8.5 -62t-8.5 -53t-7 -33.5l16 -4l72 108.5t85 107t98.5 82t111.5 32.5z" />
    <glyph glyph-name="s" unicode="s" horiz-adv-x="724" 
d="M565 747q-35 14 -81.5 21.5t-94.5 7.5q-63 0 -119.5 -14t-87.5 -43q7 -38 42.5 -72t85 -67.5l105.5 -68t103 -74t78 -86t31 -103.5l-37 -125q-31 -39 -72 -66.5t-87 -44.5t-95.5 -24.5t-97.5 -7.5q-45 0 -86.5 5.5t-79.5 16.5l6 260h46l14 -125q38 -15 94.5 -25
t116.5 -10q33 0 65.5 4t61 12.5t52.5 22t40 33.5q-7 38 -43 72t-86.5 66.5t-107.5 65.5t-105.5 70.5t-82.5 81t-37 97.5l37 125q24 35 61 62t83 45.5t97.5 28t102.5 9.5q38 0 74.5 -5t70.5 -16l-6 -256h-43l-18 127v0z" />
    <glyph glyph-name="t" unicode="t" horiz-adv-x="581" 
d="M193 877q2 62 3.5 128.5t2.5 139.5l159 43q-9 -63 -16.5 -142.5t-14.5 -166.5q62 2 114.5 5t103.5 7l-4 -115q-49 0 -105.5 4.5t-114.5 11.5q-5 -74 -8.5 -146t-6 -133.5t-4 -109t-1.5 -73.5q0 -30 1 -64t3.5 -67t6.5 -63.5t11 -53.5q15 4 36.5 11t45.5 16.5t48 20
l45 20.5l20 -39q-27 -20 -59 -40t-65 -38t-66 -32t-62 -21l-76 34q-14 53 -19 110.5t-5 119.5q0 91 8 230.5t16 336.5l-121 23l3 43h121z" />
    <glyph glyph-name="u" unicode="u" horiz-adv-x="1060" 
d="M718 309q-45 -59 -97 -112t-109 -96.5t-118.5 -74.5t-125.5 -46l-76 34q-14 53 -19.5 110.5t-5.5 117.5q0 85 8 172t13 174q3 54 4.5 89.5t1.5 59.5q0 25 -1 41.5t-3 30.5q-29 -4 -60 -7q-26 -3 -57 -5t-57 -4l-4 43l303 61l33 -35q-6 -65 -14.5 -134t-16 -139.5
t-12.5 -140.5t-5 -137q0 -55 5 -108t14 -101q33 0 76 16t88 43.5t88.5 65t77.5 80.5t55 89.5t22 92.5l5 320q-30 -4 -61 -7q-26 -3 -56.5 -5t-57.5 -4l-4 43l303 61l35 -35q-11 -86 -18 -161t-11.5 -144t-7 -134t-4.5 -130q-2 -38 -2 -78.5v-77.5v-59q34 5 78 18t92 35
l21 -39q-31 -21 -76 -41.5t-90.5 -36t-84.5 -25t-58 -9.5l-35 34l16.5 140.5t24.5 150.5z" />
    <glyph glyph-name="v" unicode="v" horiz-adv-x="906" 
d="M276 879q6 -69 17 -137t25 -132.5t30.5 -124t33.5 -111.5q39 -121 84 -229h19l96 205q62 133 86.5 240.5t24.5 179.5q0 26 -3 46t-8 36l168 45q3 -15 3.5 -30.5t0.5 -30.5q0 -42 -10.5 -88.5t-34 -106.5t-62 -137.5t-95.5 -181.5l-175 -320l-75 -22q-50 109 -89.5 207.5
t-72 196.5t-58 200t-47.5 219l-153 -17l-4 43l254 68z" />
    <glyph glyph-name="w" unicode="w" horiz-adv-x="1368" 
d="M973 145q45 105 78.5 194t55.5 165.5t33 140.5t11 119q0 25 -1.5 46.5t-6.5 41.5l168 45q12 -68 -8 -147.5t-66 -184.5t-115.5 -242l-156.5 -321l-76 -22q-52 110 -105 250.5t-95 304.5l-248 -533l-76 -22q-39 82 -71.5 172.5t-59.5 191.5t-49.5 215t-42.5 244l-53 -6
q-23 -2 -50 -5.5t-51 -5.5l-4 43l254 68l45 -18q3 -69 11 -137t18.5 -132.5t23.5 -124t26 -111.5q31 -121 68 -229h19l207 532q-9 45 -16 90t-13 91l148 39q4 -69 14.5 -138t24 -135t29 -127t31.5 -114q37 -125 81 -238h18v0z" />
    <glyph glyph-name="x" unicode="x" horiz-adv-x="920" 
d="M86 -20q-5 18 -5 33q0 42 24.5 84.5t61 84.5t78 83t74.5 81l63 74l-202 379q-27 -3 -54 -7q-23 -3 -50 -6t-49 -6l-7 41l236 76l45 -20l182 -340l6 8q58 68 95 142.5t37 158.5v6l167 45q1 -6 1 -10v-9q0 -48 -18.5 -87.5t-48.5 -76.5t-68.5 -75.5t-78.5 -85.5l-61 -73
l213 -398q29 5 73 18.5t89 36.5l18 -41q-40 -32 -107.5 -63.5t-148.5 -52.5l-45 20l-193 360l-5 -6q-42 -50 -72 -89.5t-49.5 -75t-28.5 -69t-9 -70.5v-13.5t1 -13.5z" />
    <glyph glyph-name="y" unicode="y" horiz-adv-x="904" 
d="M475 2l-88 -157t-95 -155t-100 -136t-103 -99l-96 137q55 31 109 67.5t105.5 82.5t99.5 104.5t93 133.5l-78 172.5t-74.5 191.5t-65 215t-49.5 244l-153 -17l-4 43l254 68l45 -18q3 -69 12.5 -137t23.5 -132.5t31 -124t34 -111.5q40 -121 89 -229h19l96 205
q62 133 86.5 240.5t24.5 179.5q0 26 -3 46t-8 36l168 45q3 -15 3.5 -30.5t0.5 -30.5q0 -42 -10 -88.5t-34 -106.5t-62.5 -137.5t-95.5 -181.5z" />
    <glyph glyph-name="z" unicode="z" horiz-adv-x="817" 
d="M129 897q73 -8 154.5 -12t165.5 -4q78 0 151 4t133 12l21 -41l-543 -715l424 -12l53 133h50q-12 -48 -19.5 -83.5l-13.5 -66l-11.5 -60.5t-13.5 -68l-551 55l-47 -59l-57 49l567 743q-68 -9 -122 -12.5t-105 -3.5q-44 0 -85.5 1t-84.5 3l-31 -142h-45l10 279v0z" />
    <glyph glyph-name="braceleft" unicode="{" horiz-adv-x="561" 
d="M558 1450l-144 -66q-7 -14 -12.5 -35.5t-10 -46t-7 -49.5t-2.5 -45q0 -43 2 -86.5t2 -87.5q0 -66 -7 -136.5t-33.5 -136.5t-78 -122.5t-141.5 -93.5q121 -48 174 -145t53 -242q0 -39 -3 -77t-6.5 -77t-6.5 -80.5t-3 -89.5q0 -37 7.5 -66l15.5 -63l135 -70l-14 -51
q-92 15 -147.5 50.5t-84.5 82.5t-38 101t-9 106q0 66 7.5 131.5t7.5 137.5q0 19 -1 49t-3 63t-6.5 65t-10.5 54l-162 88l2 61l168 95q12 27 20 64t12 76t5.5 74.5t1.5 59.5v150q0 37 2.5 78t12 82.5t28.5 81t52.5 72.5t84 58t123.5 37z" />
    <glyph glyph-name="bar" unicode="|" horiz-adv-x="435" 
d="M168 1554h99v-1955h-99v1955z" />
    <glyph glyph-name="braceright" unicode="}" horiz-adv-x="560" 
d="M1 -365l149 66q7 14 12 35.5t8.5 46.5t5 49.5t1.5 44.5q0 43 -2 87t-2 87q0 66 7 136.5t33 136.5t78 122.5t142 94.5q-122 48 -174.5 144.5t-52.5 242.5q0 39 3 76.5l6 76.5l6 80.5t3 89.5q0 37 -4 66t-12 63l-142 70l15 51q92 -15 147 -50.5t84 -82.5t38 -101t9 -106
q0 -66 -7 -131.5t-7 -136.5q0 -19 1 -49.5t3 -63.5t6 -64.5t10 -53.5l162 -89l-2 -61l-168 -94q-12 -27 -20 -64.5t-12 -76t-5.5 -74.5t-1.5 -60v-149q0 -37 -2 -78.5t-11.5 -83t-28.5 -81t-53 -72.5t-84.5 -58t-123.5 -37z" />
    <glyph glyph-name="asciitilde" unicode="~" horiz-adv-x="876" 
d="M538 471q-44 15 -79 30.5t-65.5 32.5t-58 36t-55.5 41l-55 -49l-50 -42.5l-47 -39.5l-29 30l181 199h59q34 -21 67 -38.5t67.5 -31t73 -25t83.5 -20.5l45 41l42.5 37l43.5 37l31 -31l-191 -207h-63z" />
    <glyph glyph-name="nonbreakingspace" unicode="&#xa0;" horiz-adv-x="447" 
 />
    <glyph glyph-name="exclamdown" unicode="&#xa1;" horiz-adv-x="422" 
d="M159 676l-37 36q5 40 6.5 69t3.5 48q1 22 2 37l146 31l36 -37q-5 -41 -7.5 -69t-3.5 -47q-2 -22 -1 -36zM78 -545q12 82 22.5 169.5l20 174.5t17.5 170.5l15 158.5q16 175 28 344h58q0 -169 4 -344q1 -75 3.5 -158.5t6 -170.5t7.5 -174.5t10 -169.5q-18 2 -44 3.5
t-52 1.5t-51 -1.5t-45 -3.5z" />
    <glyph glyph-name="cent" unicode="&#xa2;" horiz-adv-x="765" 
d="M678 238l-65 -58.5t-88 -69.5q-38 -27 -81 -53l-10 -280h-71l8 241q-44 -20 -92 -38l-76 34q-62 66 -89.5 151.5t-27.5 176.5q0 67 15 134.5t44 129.5t71 115t95 92q41 30 89 50l8 235h73l-8 -211q45 10 93 10q51 0 110 -12l-33 -123q-50 14 -90.5 22t-75.5 11l-7 1
l-23 -653q17 8 35 18q79 44 170 113zM353 801q-34 -26 -58.5 -64.5t-40 -86t-23 -101.5t-7.5 -109q0 -48 5.5 -95t17 -90.5t29 -82t42.5 -68.5q28 4 56 12l24 684q-23 1 -45 1z" />
    <glyph glyph-name="sterling" unicode="&#xa3;" horiz-adv-x="982" 
d="M779 125q18 29 34.5 72t28.5 94l43 -6q-2 -38 -12.5 -84t-25.5 -89t-31.5 -78t-28.5 -50l-47 -4l-561 73l-70 -73h-45l-16 40q66 61 112 110t74.5 102.5t41.5 118.5t13 157q0 36 -2 72.5t-5 74.5l-177 19l2 43q42 0 84 -0.5t86 -1.5q-8 85 -15.5 157t-7.5 115
q0 41 11.5 78t31.5 71t47 64.5t58 59.5q78 73 152.5 116t158.5 43q32 0 58.5 -3t50 -7.5t44.5 -10t42 -9.5l-35 -140q-78 35 -158 55.5t-149 20.5q-36 -26 -63 -54t-45 -64.5t-27 -84t-9 -112.5q0 -21 1 -43.5t3 -45.5l15 -206q57 0 110 1.5t98 3.5t81 4.5t59 6.5l-41 -92
q-56 -6 -121 -6q-42 0 -87.5 2t-93.5 5q1 -10 1 -16.5v-12.5q0 -135 -45 -251t-125 -198z" />
    <glyph glyph-name="currency" unicode="&#xa4;" horiz-adv-x="1483" 
d="M169 696q0 107 36 203.5t101 173.5l-206 207l69 70l207 -207q74 63 165.5 100t194.5 37q107 0 202.5 -37t170.5 -100l207 207l70 -70l-209 -209q65 -77 102 -172.5t37 -202.5q0 -102 -34.5 -194.5t-96.5 -167.5l201 -201l-70 -70l-199 199q-77 -68 -174 -105.5
t-207 -37.5q-106 0 -200.5 37.5t-169.5 103.5l-197 -197l-69 70l198 199q-60 75 -94.5 168t-34.5 196zM267 705q0 -99 37.5 -187.5t102 -155t150.5 -105t184 -38.5q99 0 186 38.5t151.5 105t102 155t37.5 187.5q0 100 -37.5 189t-102 156t-151.5 105.5t-186 38.5
q-98 0 -184 -38.5t-150.5 -105.5t-102 -156t-37.5 -189z" />
    <glyph glyph-name="yen" unicode="&#xa5;" horiz-adv-x="1432" 
d="M954 840h258l-2 -70q-39 -1 -87 -1q-41 -1 -96 -1t-119 -2l-92 -143h390l-4 -70q-53 0 -116 -1q-54 -1 -126 -2t-155 -3l-15 -445l146 -45v-57l-53 7q-26 2 -64 4.5t-88 2.5q-51 0 -112.5 -3t-135.5 -11v57q26 2 46 4t37 4t33 3t34 2l10 473q-104 -4 -206.5 -9.5
t-190.5 -13.5l4 103h385l-78 134q-81 -4 -158 -9t-145 -11l4 103h251l-259 448l-170 43v58q25 -4 58 -8q29 -3 69.5 -5t93.5 -2t115.5 3.5t136.5 11.5v-58q-26 -2 -46 -4t-37 -3.5t-33 -2.5t-34 -2l353 -623h16l338 592l-150 43v58q20 -4 49 -8q25 -3 61.5 -5t86.5 -2
t109.5 3.5t134.5 11.5v-58q-42 -5 -73.5 -8t-68.5 -4z" />
    <glyph glyph-name="brokenbar" unicode="&#xa6;" horiz-adv-x="453" 
d="M177 1554h99v-696h-99v696zM177 295h99v-696h-99v696z" />
    <glyph glyph-name="section" unicode="&#xa7;" horiz-adv-x="919" 
d="M263 1192q-20 -32 -36 -64t-26.5 -68.5t-16 -78t-5.5 -92.5q0 -76 16.5 -145.5t43.5 -132t60.5 -119t67.5 -107.5l96 -143t78.5 -124.5t52.5 -110.5t19 -101q0 -28 -2.5 -59.5t-10.5 -65.5l21 -6q46 74 75 157.5t29 182.5q0 79 -15 145.5t-43 129t-68.5 125.5t-92.5 136
l-74 98t-73 104t-56 113.5t-22 127.5v14.5v18t0.5 24.5t1.5 35zM490 -332q18 19 26.5 47t8.5 62q0 45 -10.5 87.5t-32 87.5t-55.5 95t-80 109q-63 79 -112 153t-83 150.5t-52 159.5t-18 180q0 73 15 147.5t44 144.5t71 131t95 106.5t116.5 72t136.5 26.5q38 0 87 -5.5
t93 -16.5l-4 -154q-93 41 -181 57.5t-163 16.5q-14 -14 -24.5 -44.5t-10.5 -66.5q0 -60 38.5 -129.5t106.5 -158.5l127.5 -173.5t106 -172.5t72 -181t26.5 -198q0 -70 -16 -144t-46.5 -144.5t-74.5 -133.5t-101 -110.5t-126 -75t-148 -27.5q-38 0 -87.5 5.5t-92.5 16.5
l4 154q93 -40 181 -57t163 -17z" />
    <glyph glyph-name="dieresis" unicode="&#xa8;" horiz-adv-x="700" 
d="M139 1165l-34 34q4 38 6.5 64.5t3.5 44.5q1 20 1 35l135 29l33 -35q-5 -38 -7 -65t-3 -44q-1 -20 -1 -33zM452 1165l-34 34q4 38 6.5 64.5t3.5 44.5q1 20 1 35l135 29l33 -35q-5 -38 -7 -65t-3 -44q-1 -20 -1 -33z" />
    <glyph glyph-name="copyright" unicode="&#xa9;" horiz-adv-x="1645" 
d="M163 696q0 -91 24 -175.5t67 -158t104 -134.5t134.5 -104t158.5 -67t176 -24t175.5 24t158 67t134.5 104t104 134.5t67 158t24 175.5t-24 176t-67 158.5t-104 134.5t-134.5 104t-158 67t-175.5 24t-176 -24t-158.5 -67t-134.5 -104t-104 -134.5t-67 -158.5t-24 -176z
M93 696q0 101 26 195t74 175.5t115 148.5t148.5 115t175 74t195.5 26q101 0 195 -26t175 -74t148 -115t115 -148.5t74 -175.5t26 -195q0 -152 -57.5 -285.5t-157 -233t-233 -157t-285.5 -57.5q-101 0 -195 26t-175.5 74t-148.5 115t-115 148t-74 175t-26 195zM878 1067
q-69 0 -133.5 -24t-113.5 -69t-78.5 -109t-29.5 -143q0 -96 33.5 -165.5t87 -114.5t120.5 -66.5t134 -21.5q27 0 50.5 1t46.5 4t48.5 9t57.5 15l18 -57q-32 -15 -67.5 -25.5t-71 -17t-68 -9t-57.5 -2.5q-97 0 -181 31t-146.5 86t-98 131.5t-35.5 167.5q0 94 38 175.5
t104 141.5t154.5 94t189.5 34q88 0 154.5 -10.5t117.5 -24.5l-16 -197h-62l-12 111q-13 8 -30.5 17.5t-40 18t-51 14t-62.5 5.5z" />
    <glyph glyph-name="ordfeminine" unicode="&#xaa;" horiz-adv-x="872" 
d="M538 803q3 20 7 58l8.5 84t7.5 93.5t5 86.5l-12 4q-31 -68 -70 -127.5t-83.5 -106t-93 -78t-97.5 -43.5l-100 29q-2 20 -3.5 40t-1.5 40q0 85 16.5 165.5t46 150.5t70 128.5t87.5 100.5t99.5 65t106.5 23q26 0 48.5 -1.5t43 -4.5t40.5 -7.5l43 -9.5q-8 -84 -13 -162.5
t-8 -155.5t-4.5 -154.5t-1.5 -158.5q52 6 131 43l20 -41q-24 -17 -62 -33t-76.5 -29t-72 -20.5t-49.5 -7.5zM576 1409l-49 12.5t-53 6.5q-62 0 -107.5 -33t-76 -93t-45.5 -144t-15 -185q0 -25 1 -48.5t3 -49.5q23 3 55.5 23.5t68.5 54t72.5 78.5t66.5 97.5t50 110t25 117.5z
" />
    <glyph glyph-name="guillemotleft" unicode="&#xab;" horiz-adv-x="945" 
d="M831 168l-24 -23l-369 377l395 379l23 -27l-209 -352zM575 117l-32 -31l-492 436l522 459l33 -31l-334 -428z" />
    <glyph glyph-name="logicalnot" unicode="&#xac;" horiz-adv-x="1192" 
d="M1040 696v-352h-98v254h-783v98h881z" />
    <glyph glyph-name="uni00AD" unicode="&#xad;" horiz-adv-x="847" 
d="M705 547l-4 -117h-566l4 117h566z" />
    <glyph glyph-name="registered" unicode="&#xae;" horiz-adv-x="1116" 
d="M405 743q2 53 4.5 100l4.5 85q2 47 4 88.5t3 75.5t1.5 58t0.5 36l-54 20v43q10 -1 23 -1q11 -1 26.5 -1h34.5q24 0 52 3t68 3q43 0 74.5 -12t52.5 -32.5t31 -47t10 -55.5q0 -66 -28.5 -104t-83.5 -63l119 -187l71 -25l-3 -33h-128l-135 227q-10 -2 -28.5 -2.5t-30.5 -0.5
l-2 -48l-2 -48t-1.5 -40.5t-0.5 -24.5l55 -18v-45q-12 2 -26 4q-12 2 -28 3t-34 1q-16 0 -42 -1.5t-63 -6.5v45zM494 958h10q34 0 62.5 8t49 24.5t32 41.5t11.5 60q0 20 -5 40.5t-18.5 37.5t-36 27.5t-56.5 10.5h-20t-21 -2zM100 958q0 98 37 184t101 150t149.5 101
t183.5 37q97 0 183 -37t150 -101t101 -150t37 -184t-37 -183.5t-101 -149.5t-150 -101t-183 -37q-98 0 -183.5 37t-149.5 101t-101 149.5t-37 183.5zM156 956q0 -85 32.5 -160t89 -131.5t131.5 -89t160 -32.5t160.5 32.5t132 89t89 131.5t32.5 160t-32.5 160.5t-89 132
t-132 89t-160.5 32.5t-160 -32.5t-131.5 -89t-89 -132t-32.5 -160.5z" />
    <glyph glyph-name="macron" unicode="&#xaf;" horiz-adv-x="1182" 
d="M834 1296l-5 -116h-565l4 116h566z" />
    <glyph glyph-name="degree" unicode="&#xb0;" horiz-adv-x="584" 
d="M174 1217q0 -30 10.5 -55.5t29.5 -44.5t44 -29.5t55 -10.5t55.5 10.5t44.5 29.5t29.5 44.5t10.5 55.5t-10.5 55t-29.5 44t-44.5 29.5t-55.5 10.5t-55 -10.5t-44 -29.5t-29.5 -44t-10.5 -55zM96 1217q0 46 16.5 85.5t46 68.5t69 46t85.5 17t85.5 -17t69 -46t46 -68.5
t16.5 -85.5t-16.5 -86t-46 -69t-69 -46t-85.5 -17t-85.5 17t-69 46t-46 69t-16.5 86z" />
    <glyph glyph-name="plusminus" unicode="&#xb1;" horiz-adv-x="1203" 
d="M1069 254v-98h-942v98h942zM549 780v422h99v-422h421v-98h-421v-328h-99v328h-422v98h422z" />
    <glyph glyph-name="twosuperior" unicode="&#xb2;" horiz-adv-x="600" 
d="M394 1366q0 64 -30.5 92.5t-73.5 28.5q-35 0 -74 -17.5t-70 -46.5l-28 33q43 50 99 74t112 24q35 0 67.5 -10.5t57 -31.5t39 -53.5t14.5 -76.5q0 -42 -13.5 -84.5t-48.5 -96t-96 -122.5t-156 -164l207 7q17 1 29.5 4.5t22.5 13.5t18.5 27.5t17.5 46.5l37 -8
q-12 -48 -22.5 -96t-16.5 -85h-411l-11 27l114.5 121.5t106.5 125t78.5 130t30.5 137.5z" />
    <glyph glyph-name="threesuperior" unicode="&#xb3;" horiz-adv-x="577" 
d="M527 1085q0 -57 -30.5 -106.5t-78 -86t-106 -57t-113.5 -20.5q-37 0 -70 10t-59 33l57 90q26 -28 58 -46.5t69 -18.5q32 0 62 10.5t52.5 32t36 55t13.5 78.5q0 60 -33 95.5t-98 35.5q-30 0 -63 -12l-15 43l27 8q28 8 54 23.5t45.5 37.5t31.5 50t12 63q0 37 -21.5 60.5
t-68.5 23.5q-42 0 -74 -19t-63 -45l-29 33q17 18 38 35.5t46.5 31.5t56.5 22.5t68 8.5q68 0 110 -33t42 -96q0 -34 -13 -61.5t-32.5 -49.5t-41.5 -38t-40 -27q39 -2 70.5 -15.5t53.5 -36t34 -51.5t12 -61z" />
    <glyph glyph-name="acute" unicode="&#xb4;" horiz-adv-x="582" 
d="M102 1165l252 379q28 -28 60.5 -50t64.5 -38l-329 -323z" />
    <glyph glyph-name="mu" unicode="&#xb5;" horiz-adv-x="1110" 
d="M356 877l-15 -137.5t-14.5 -145t-11 -147t-4.5 -142.5q0 -56 3 -106t11 -97q34 0 77 16t88 43.5t89 65t78.5 80.5t55.5 89.5t22 92.5l6 388h160q-13 -86 -21 -163.5t-12.5 -149.5t-7 -139t-4.5 -132q-1 -19 -1.5 -40t-0.5 -46.5v-57v-71.5q34 5 78 18t92 35l20 -39
q-31 -21 -76 -41.5t-90.5 -36t-84.5 -25t-58 -9.5l-35 34l17 140.5t24 150.5l-16 4q-44 -55 -92 -106t-103 -94t-118 -76t-138 -53l-8 -498h-160q12 131 28.5 287t32 332.5t28.5 371.5t18 404h143z" />
    <glyph glyph-name="mu" unicode="&#x3bc;" horiz-adv-x="1110" 
d="M356 877l-15 -137.5t-14.5 -145t-11 -147t-4.5 -142.5q0 -56 3 -106t11 -97q34 0 77 16t88 43.5t89 65t78.5 80.5t55.5 89.5t22 92.5l6 388h160q-13 -86 -21 -163.5t-12.5 -149.5t-7 -139t-4.5 -132q-1 -19 -1.5 -40t-0.5 -46.5v-57v-71.5q34 5 78 18t92 35l20 -39
q-31 -21 -76 -41.5t-90.5 -36t-84.5 -25t-58 -9.5l-35 34l17 140.5t24 150.5l-16 4q-44 -55 -92 -106t-103 -94t-118 -76t-138 -53l-8 -498h-160q12 131 28.5 287t32 332.5t28.5 371.5t18 404h143z" />
    <glyph glyph-name="paragraph" unicode="&#xb6;" horiz-adv-x="975" 
d="M699 -544h-97l63 1832h-172l-65 -1832h-96l48 1418h-28q-76 0 -128.5 21.5t-85.5 57t-48 80t-15 90.5q0 58 22.5 107.5t62 85t93.5 55.5t117 20q45 0 117 -4.5t178 -4.5q53 0 114 2t134 7v-58q-23 -2 -42.5 -3.5l-37.5 -3l-35 -3t-35 -2.5z" />
    <glyph glyph-name="periodcentered" unicode="&#xb7;" horiz-adv-x="418" 
d="M154 601l-37 36q5 40 6.5 69t3.5 48q1 22 2 37l146 31l36 -37q-5 -41 -7.5 -69t-3.5 -47q-2 -22 -1 -36z" />
    <glyph glyph-name="cedilla" unicode="&#xb8;" horiz-adv-x="543" 
d="M449 -242q0 -43 -20.5 -79t-55 -62.5t-79.5 -41.5t-93 -15q-54 0 -103 18l4 113q34 -16 79.5 -31.5t88.5 -15.5q37 0 68.5 16t48.5 61q-28 38 -78.5 65t-107.5 52l35 205h73l-20 -127q31 -13 60 -28.5t51.5 -34.5t35.5 -42.5t13 -52.5z" />
    <glyph glyph-name="onesuperior" unicode="&#xb9;" horiz-adv-x="497" 
d="M242 1434q-19 -13 -41 -26q-19 -11 -44 -24t-54 -24l-17 35q31 15 59 30.5t55 34t54 41.5t56 53h41q-5 -142 -8 -239.5l-5 -161.5t-3.5 -100t-2 -53t-0.5 -21.5v-6.5q0 -31 4 -50.5t12.5 -30.5t21 -16t30.5 -7l28 -4v-39q-16 2 -36 4q-18 2 -43.5 3.5t-59.5 1.5
q-67 0 -166 -9v39q34 3 55 4.5t46 3.5z" />
    <glyph glyph-name="ordmasculine" unicode="&#xba;" horiz-adv-x="727" 
d="M675 1209q0 -67 -23.5 -142.5t-69 -140t-112 -107t-151.5 -42.5q-60 0 -101.5 25.5t-68 67.5t-38 96t-11.5 112q0 48 11.5 99.5t33.5 100t54 92t73.5 76t91.5 51.5t109 19q60 0 99 -26.5t62 -70t32 -98.5t9 -112zM448 873q23 13 44 38.5t37 61t25.5 79t9.5 91.5
q0 77 -22.5 148t-81.5 131h-135q-21 -14 -41.5 -40t-36.5 -61t-26 -78.5t-10 -91.5q0 -75 22 -146t78 -132h137z" />
    <glyph glyph-name="guillemotright" unicode="&#xbb;" horiz-adv-x="943" 
d="M368 950l32 31l490 -459l-520 -436l-33 31l332 405zM110 874l26 27l367 -379l-393 -377l-25 23l209 354z" />
    <glyph glyph-name="onequarter" unicode="&#xbc;" horiz-adv-x="1225" 
d="M253 1232q-19 -13 -41 -26q-19 -11 -44 -24t-54 -24l-17 35q31 15 59 30.5t55 34t54 41.5t56 53h41q-5 -142 -8 -239.5l-5 -161.5t-3.5 -100t-2 -53t-0.5 -21.5v-6.5q0 -31 4 -50.5t12.5 -30.5t21 -16t30.5 -7l28 -4v-39q-16 2 -36 4q-18 2 -43.5 3.5t-59.5 1.5
q-67 0 -166 -9v39q34 3 55 4.5t46 3.5zM101 31l1004 1384l57 -39l-1003 -1392zM917 232h-285l2 37l367 460l37 -16l-15 -420q25 2 46 2.5t36 2.5q18 1 31 3l-26 -69h-89q-1 -26 -1.5 -41t-0.5 -23v-11.5v-5.5q0 -36 5 -57t14 -31.5t21 -14t26 -5.5l31 -4v-39q-31 5 -66.5 8
t-77.5 3q-35 0 -75 -3t-86 -8v39q35 3 54.5 4.5l45.5 3.5zM708 283q51 0 105.5 1.5t105.5 3.5l10 273z" />
    <glyph glyph-name="onehalf" unicode="&#xbd;" horiz-adv-x="1289" 
d="M253 1231q-19 -13 -41 -26q-19 -11 -44 -24t-54 -24l-17 35q31 15 59 30.5t55 34t54 41.5t56 53h41q-5 -142 -8 -239.5l-5 -161.5t-3.5 -100t-2 -53t-0.5 -21.5v-6.5q0 -31 4 -50.5t12.5 -30.5t21 -16t30.5 -7l28 -4v-39q-16 2 -36 4q-18 2 -43.5 3.5t-59.5 1.5
q-67 0 -166 -9v39q34 3 55 4.5t46 3.5zM101 31l1004 1384l57 -39l-1003 -1392zM1072 542q0 64 -30.5 92.5t-73.5 28.5q-35 0 -74 -17.5t-70 -46.5l-28 33q43 50 99 74t112 24q35 0 67.5 -10.5t57 -31.5t39 -53.5t14.5 -76.5q0 -42 -13.5 -84.5t-48.5 -96t-96 -122.5
t-156 -164l207 7q17 1 29.5 4.5t22.5 13.5t18.5 27.5t17.5 46.5l37 -8q-12 -48 -22.5 -96t-16.5 -85h-411l-11 27l114.5 121.5t106.5 125t78.5 130t30.5 137.5z" />
    <glyph glyph-name="threequarters" unicode="&#xbe;" horiz-adv-x="1255" 
d="M535 882q0 -57 -30.5 -106.5t-78 -86t-106 -57t-113.5 -20.5q-37 0 -70 10t-59 33l57 90q26 -28 58 -46.5t69 -18.5q32 0 62 10.5t52.5 32t36 55t13.5 78.5q0 60 -33 95.5t-98 35.5q-30 0 -63 -12l-15 43l27 8q28 8 54 23.5t45.5 37.5t31.5 50t12 63q0 37 -21.5 60.5
t-68.5 23.5q-42 0 -74 -19t-63 -45l-29 33q17 18 38 35.5t46.5 31.5t56.5 22.5t68 8.5q68 0 110 -33t42 -96q0 -34 -13 -61.5t-32.5 -49.5t-41.5 -38t-40 -27q39 -2 70.5 -15.5t53.5 -36t34 -51.5t12 -61zM131 31l1004 1384l57 -39l-1003 -1392zM947 232h-285l2 37l367 460
l37 -16l-15 -420q25 2 46 2.5t36 2.5q18 1 31 3l-26 -69h-89q-1 -26 -1.5 -41t-0.5 -23v-11.5v-5.5q0 -36 5 -57t14 -31.5t21 -14t26 -5.5l31 -4v-39q-31 5 -66.5 8t-77.5 3q-35 0 -75 -3t-86 -8v39q35 3 54.5 4.5l45.5 3.5zM738 283q51 0 105.5 1.5t105.5 3.5l10 273z" />
    <glyph glyph-name="questiondown" unicode="&#xbf;" horiz-adv-x="723" 
d="M428 488l41 -49t43.5 -59t34.5 -62.5t14 -58.5q0 -34 -24.5 -76.5t-64 -90.5t-88 -99.5l-97.5 -102.5l-93 -100t-73 -91q4 -36 21.5 -59.5t43.5 -36.5t59.5 -18t70.5 -5q40 0 79 6.5t74.5 17t66 23.5t54.5 27l-4 -172q-13 -5 -35.5 -10t-51 -8.5t-60.5 -6t-64 -2.5
q-71 0 -132 17.5t-106 50t-70.5 78.5t-25.5 102q0 50 26 102t67 104.5t91 103l98 98l88 90t62 78.5q-2 12 -11 34.5t-21 48t-26 50.5t-26 43zM493 897l37 -36q-5 -41 -7.5 -69.5t-3.5 -47.5q-2 -22 -1 -37l-146 -31l-36 37q5 40 6.5 68.5t3.5 47.5q1 22 2 36z" />
    <glyph glyph-name="Agrave" unicode="&#xc0;" horiz-adv-x="1265" 
d="M694 1442l413 -1340l170 -45l-2 -57q-51 6 -110 9t-121 3q-66 0 -129.5 -3t-120.5 -9l2 57l142 13l-115 415h-39q-28 0 -72 -0.5t-99.5 -2.5t-119.5 -6t-131 -11l-129 -363l164 -45l-2 -57q-54 6 -103.5 10t-103.5 4t-112.5 -4t-129.5 -10l2 57q29 3 55 6l46.5 4t38.5 3
l85.5 188l90.5 214l92.5 232l91.5 241l87 241l79 233zM606 1169l-211 -614h407l-168 614h-28zM683 1546l-405 213q25 31 46 63t40 64l358 -291z" />
    <glyph glyph-name="Aacute" unicode="&#xc1;" horiz-adv-x="1265" 
d="M694 1442l413 -1340l170 -45l-2 -57q-51 6 -110 9t-121 3q-66 0 -129.5 -3t-120.5 -9l2 57l142 13l-115 415h-39q-28 0 -72 -0.5t-99.5 -2.5t-119.5 -6t-131 -11l-129 -363l164 -45l-2 -57q-54 6 -103.5 10t-103.5 4t-112.5 -4t-129.5 -10l2 57q29 3 55 6l46.5 4t38.5 3
l85.5 188l90.5 214l92.5 232l91.5 241l87 241l79 233zM606 1169l-211 -614h407l-168 614h-28zM608 1591l342 301q20 -34 45 -64.5t53 -53.5l-403 -228z" />
    <glyph glyph-name="Acircumflex" unicode="&#xc2;" horiz-adv-x="1265" 
d="M694 1442l413 -1340l170 -45l-2 -57q-51 6 -110 9t-121 3q-66 0 -129.5 -3t-120.5 -9l2 57l142 13l-115 415h-39q-28 0 -72 -0.5t-99.5 -2.5t-119.5 -6t-131 -11l-129 -363l164 -45l-2 -57q-54 6 -103.5 10t-103.5 4t-112.5 -4t-129.5 -10l2 57q29 3 55 6l46.5 4t38.5 3
l85.5 188l90.5 214l92.5 232l91.5 241l87 241l79 233zM606 1169l-211 -614h407l-168 614h-28zM364 1546l-39 41l307 268h82l289 -268l-43 -41l-291 178z" />
    <glyph glyph-name="Atilde" unicode="&#xc3;" horiz-adv-x="1265" 
d="M694 1442l413 -1340l170 -45l-2 -57q-51 6 -110 9t-121 3q-66 0 -129.5 -3t-120.5 -9l2 57l142 13l-115 415h-39q-28 0 -72 -0.5t-99.5 -2.5t-119.5 -6t-131 -11l-129 -363l164 -45l-2 -57q-54 6 -103.5 10t-103.5 4t-112.5 -4t-129.5 -10l2 57q29 3 55 6l46.5 4t38.5 3
l85.5 188l90.5 214l92.5 232l91.5 241l87 241l79 233zM606 1169l-211 -614h407l-168 614h-28zM790 1554q-44 15 -79 30.5t-65 32.5t-58 36t-56 41l-55 -49l-49.5 -42.5l-46.5 -39.5l-29 30l180 199h60q34 -21 67 -38.5t67.5 -31t73 -25t83.5 -20.5q21 21 44 41l43 37l44 37
l30 -31l-190 -207h-64z" />
    <glyph glyph-name="Adieresis" unicode="&#xc4;" horiz-adv-x="1265" 
d="M694 1442l413 -1340l170 -45l-2 -57q-51 6 -110 9t-121 3q-66 0 -129.5 -3t-120.5 -9l2 57l142 13l-115 415h-39q-28 0 -72 -0.5t-99.5 -2.5t-119.5 -6t-131 -11l-129 -363l164 -45l-2 -57q-54 6 -103.5 10t-103.5 4t-112.5 -4t-129.5 -10l2 57q29 3 55 6l46.5 4t38.5 3
l85.5 188l90.5 214l92.5 232l91.5 241l87 241l79 233zM606 1169l-211 -614h407l-168 614h-28zM453 1548l-34 34q4 38 6.5 64.5t3.5 44.5q1 20 1 35l135 29l33 -35q-5 -38 -7 -65t-3 -44q-1 -20 -1 -33zM801 1548l-34 34q4 38 6.5 64.5t3.5 44.5q1 20 1 35l135 29l33 -35
q-5 -38 -7 -65t-3 -44q-1 -20 -1 -33z" />
    <glyph glyph-name="Aring" unicode="&#xc5;" horiz-adv-x="1265" 
d="M694 1442l413 -1340l170 -45l-2 -57q-51 6 -110 9t-121 3q-66 0 -129.5 -3t-120.5 -9l2 57l142 13l-115 415h-39q-28 0 -72 -0.5t-99.5 -2.5t-119.5 -6t-131 -11l-129 -363l164 -45l-2 -57q-54 6 -103.5 10t-103.5 4t-112.5 -4t-129.5 -10l2 57q29 3 55 6l46.5 4t38.5 3
l85.5 188l90.5 214l92.5 232l91.5 241l87 241l79 233zM606 1169l-211 -614h407l-168 614h-28zM661 1870q-28 0 -50 -11t-37 -29.5t-23 -42.5t-8 -50q0 -23 7 -46t22 -42t37.5 -31t54.5 -12q55 0 86.5 34.5t31.5 96.5q0 21 -7 44.5t-22 43t-38 32.5t-54 13zM459 1722
q0 40 16 77t45 65.5t71 45.5t93 17q48 0 83.5 -14t58 -37t33.5 -53.5t11 -63.5q0 -45 -18 -84t-48.5 -67.5t-71 -45t-85.5 -16.5q-52 0 -88 15t-58 40t-32 56.5t-10 64.5z" />
    <glyph glyph-name="AE" unicode="&#xc6;" horiz-adv-x="1691" 
d="M1056 1309q-8 -82 -12 -166.5t-6 -155.5l-9 -225l426 22l-10 -127q-60 8 -122 14t-118 10t-103 6.5t-77 4.5l-18 -614l452 16l101 211h63l-78 -325q-106 3 -202.5 8.5t-176 10.5l-138.5 9t-89 4q-51 0 -108 -2t-131 -10l2 57q26 2 45.5 4t36.5 4t33 3t34 2l13 417
q-26 0 -75 -0.5t-112.5 -3t-137.5 -7t-149 -11.5l-211 -363l172 -43l-2 -57q-54 6 -103 10t-103 4t-112.5 -4t-129.5 -10l2 57q29 3 55 6l46 4t38 3l746 1216l-176 47l2 58q53 -7 120 -11t134 -6.5t127.5 -3t99.5 -0.5q64 0 135.5 1t140.5 3.5t132.5 6t111.5 8.5l-31 -338
h-61l-29 225zM437 557h429l24 752h-16z" />
    <glyph glyph-name="Ccedilla" unicode="&#xc7;" horiz-adv-x="1412" 
d="M962 -242q0 -43 -20.5 -79t-55 -62.5t-79.5 -41.5t-93 -15q-54 0 -103 18l4 113q34 -16 79.5 -31.5t88.5 -15.5q37 0 68.5 16t48.5 61q-28 38 -78.5 65t-107.5 52l24 142q-40 6 -78 15q-100 23 -186 66t-156.5 105t-120.5 139.5t-77 168t-27 192.5q0 110 27 208.5
t77.5 182t123 151t163 114.5t197 72t225.5 25q151 0 263 -17.5t198 -39.5l-29 -334h-61l-25 221q-27 19 -61.5 36.5t-76.5 31t-90.5 21.5t-104.5 8q-125 0 -240.5 -41t-204 -120.5t-141.5 -196t-53 -267.5q0 -112 28 -205t76 -167t112.5 -129.5t138 -92t152 -54.5t154.5 -18
q48 0 88 3t80.5 10.5t84.5 20t99 30.5l19 -58q-53 -26 -113.5 -43t-119.5 -27.5t-113.5 -15t-96.5 -4.5q-29 0 -58 2l-9 -57q31 -13 60 -28.5t51.5 -34.5t35.5 -42.5t13 -52.5z" />
    <glyph glyph-name="Egrave" unicode="&#xc8;" horiz-adv-x="1052" 
d="M368 78l452 16l101 211h63l-78 -325q-106 3 -202.5 8.5t-176 10.5l-138.5 9t-89 4q-51 0 -108 -2t-131 -10l2 57q26 2 45.5 4t36.5 4t33 3t34 2l41 1218l-145 45v58q28 -4 71 -8q37 -3 93 -5t137 -2h241q40 0 78 0.5t77 2t81 4.5t90 8l-31 -338h-61l-29 225l-438 31
q-8 -82 -12 -166.5t-6 -155.5l-9 -225l426 22l-10 -127q-60 8 -122 14t-118 10t-103 6.5t-77 4.5zM726 1546l-405 213q25 31 46 63t40 64l358 -291z" />
    <glyph glyph-name="Eacute" unicode="&#xc9;" horiz-adv-x="1052" 
d="M368 78l452 16l101 211h63l-78 -325q-106 3 -202.5 8.5t-176 10.5l-138.5 9t-89 4q-51 0 -108 -2t-131 -10l2 57q26 2 45.5 4t36.5 4t33 3t34 2l41 1218l-145 45v58q28 -4 71 -8q37 -3 93 -5t137 -2h241q40 0 78 0.5t77 2t81 4.5t90 8l-31 -338h-61l-29 225l-438 31
q-8 -82 -12 -166.5t-6 -155.5l-9 -225l426 22l-10 -127q-60 8 -122 14t-118 10t-103 6.5t-77 4.5zM394 1591l342 301q20 -34 45 -64.5t53 -53.5l-403 -228z" />
    <glyph glyph-name="Ecircumflex" unicode="&#xca;" horiz-adv-x="1052" 
d="M368 78l452 16l101 211h63l-78 -325q-106 3 -202.5 8.5t-176 10.5l-138.5 9t-89 4q-51 0 -108 -2t-131 -10l2 57q26 2 45.5 4t36.5 4t33 3t34 2l41 1218l-145 45v58q28 -4 71 -8q37 -3 93 -5t137 -2h241q40 0 78 0.5t77 2t81 4.5t90 8l-31 -338h-61l-29 225l-438 31
q-8 -82 -12 -166.5t-6 -155.5l-9 -225l426 22l-10 -127q-60 8 -122 14t-118 10t-103 6.5t-77 4.5zM295 1546l-39 41l307 268h82l289 -268l-43 -41l-291 178z" />
    <glyph glyph-name="Edieresis" unicode="&#xcb;" horiz-adv-x="1052" 
d="M368 78l452 16l101 211h63l-78 -325q-106 3 -202.5 8.5t-176 10.5l-138.5 9t-89 4q-51 0 -108 -2t-131 -10l2 57q26 2 45.5 4t36.5 4t33 3t34 2l41 1218l-145 45v58q28 -4 71 -8q37 -3 93 -5t137 -2h241q40 0 78 0.5t77 2t81 4.5t90 8l-31 -338h-61l-29 225l-438 31
q-8 -82 -12 -166.5t-6 -155.5l-9 -225l426 22l-10 -127q-60 8 -122 14t-118 10t-103 6.5t-77 4.5zM392 1548l-34 34q4 38 6.5 64.5t3.5 44.5q1 20 1 35l135 29l33 -35q-5 -38 -7 -65t-3 -44q-1 -20 -1 -33zM740 1548l-34 34q4 38 6.5 64.5t3.5 44.5q1 20 1 35l135 29l33 -35
q-5 -38 -7 -65t-3 -44q-1 -20 -1 -33z" />
    <glyph glyph-name="Igrave" unicode="&#xcc;" horiz-adv-x="614" 
d="M63 57q26 2 45.5 4t36.5 4t33 3t34 2l41 1218l-145 45v58q22 -4 52 -8q26 -3 63.5 -5t88.5 -2t112.5 3.5t135.5 11.5v-58q-26 -2 -45.5 -4t-36.5 -3.5t-33 -2.5t-34 -2l-41 -1219l145 -45v-57l-52 7q-26 2 -64 4.5t-89 2.5t-112 -3t-135 -11v57v0zM352 1546l-405 213
q25 31 46 63t40 64l358 -291z" />
    <glyph glyph-name="Iacute" unicode="&#xcd;" horiz-adv-x="614" 
d="M63 57q26 2 45.5 4t36.5 4t33 3t34 2l41 1218l-145 45v58q22 -4 52 -8q26 -3 63.5 -5t88.5 -2t112.5 3.5t135.5 11.5v-58q-26 -2 -45.5 -4t-36.5 -3.5t-33 -2.5t-34 -2l-41 -1219l145 -45v-57l-52 7q-26 2 -64 4.5t-89 2.5t-112 -3t-135 -11v57v0zM254 1591l342 301
q20 -34 45 -64.5t53 -53.5l-403 -228z" />
    <glyph glyph-name="Icircumflex" unicode="&#xce;" horiz-adv-x="614" 
d="M63 57q26 2 45.5 4t36.5 4t33 3t34 2l41 1218l-145 45v58q22 -4 52 -8q26 -3 63.5 -5t88.5 -2t112.5 3.5t135.5 11.5v-58q-26 -2 -45.5 -4t-36.5 -3.5t-33 -2.5t-34 -2l-41 -1219l145 -45v-57l-52 7q-26 2 -64 4.5t-89 2.5t-112 -3t-135 -11v57v0zM49 1546l-39 41
l307 268h82l289 -268l-43 -41l-291 178z" />
    <glyph glyph-name="Idieresis" unicode="&#xcf;" horiz-adv-x="614" 
d="M63 57q26 2 45.5 4t36.5 4t33 3t34 2l41 1218l-145 45v58q22 -4 52 -8q26 -3 63.5 -5t88.5 -2t112.5 3.5t135.5 11.5v-58q-26 -2 -45.5 -4t-36.5 -3.5t-33 -2.5t-34 -2l-41 -1219l145 -45v-57l-52 7q-26 2 -64 4.5t-89 2.5t-112 -3t-135 -11v57v0zM120 1548l-34 34
q4 38 6.5 64.5t3.5 44.5q1 20 1 35l135 29l33 -35q-5 -38 -7 -65t-3 -44q-1 -20 -1 -33zM468 1548l-34 34q4 38 6.5 64.5t3.5 44.5q1 20 1 35l135 29l33 -35q-5 -38 -7 -65t-3 -44q-1 -20 -1 -33z" />
    <glyph glyph-name="Eth" unicode="&#xd0;" horiz-adv-x="1638" 
d="M135 57q26 2 45.5 4t36.5 4t33 3t34 2l20 609q-77 -4 -152.5 -9t-145.5 -11l4 103h297l18 526l-145 45v58q29 -4 63 -8q29 -3 67.5 -5t82.5 -2q55 0 111 4l113.5 8.5t118.5 8.5t126 4q153 0 280 -50t217.5 -142t140.5 -221t50 -286q0 -72 -15.5 -152.5t-51 -160t-94 -152
t-143.5 -128t-200 -88.5t-264 -33q-46 0 -97 3.5t-104 8t-107 8.5t-106 4q-29 0 -90.5 -1.5t-142.5 -10.5v57zM720 1327q-34 0 -68 -0.5t-65 -2t-58 -3.5t-46 -4l-20 -555h366l-2 -70q-27 0 -65.5 -0.5t-86 -1t-102 -2t-112.5 -3.5l-21 -583q27 -8 60.5 -16.5t71.5 -15.5
t79 -12t82 -5q50 0 116.5 8t136.5 31t137.5 65.5t121 112.5t86 170.5t32.5 239.5q0 74 -11.5 150.5t-39.5 148.5t-75 135.5t-118.5 110.5t-170 74.5t-228.5 27.5z" />
    <glyph glyph-name="Ntilde" unicode="&#xd1;" horiz-adv-x="1615" 
d="M228 842q2 58 3 119t1 139q0 94 -2.5 167.5t-5.5 123.5l82 30l981 -1171l32 1038l-145 45v58q29 -4 62 -7q29 -2 65.5 -4t77.5 -2q45 0 93.5 3t100.5 10v-58q-47 -5 -79.5 -8t-69.5 -4l-10 -240t-9 -250t-7 -268.5t-3 -296.5q0 -63 0.5 -128.5t3.5 -137.5l-86 -29
l-981 1157l-26 -1025l145 -45v-58q-29 3 -62 6l-66 4.5t-77 2.5q-45 0 -93.5 -3t-100.5 -10v58q23 3 42.5 4.5t37 3t34.5 2.5l35 2zM969 1554q-44 15 -79 30.5t-65 32.5t-58 36t-56 41l-55 -49l-49.5 -42.5l-46.5 -39.5l-29 30l180 199h60q34 -21 67 -38.5t67.5 -31t73 -25
t83.5 -20.5q21 21 44 41l43 37l44 37l30 -31l-190 -207h-64z" />
    <glyph glyph-name="Ograve" unicode="&#xd2;" 
d="M280 711q0 -130 35 -250t102.5 -212.5t165.5 -148t223 -55.5q120 0 211.5 48t152.5 131.5t92 195t31 239.5q0 144 -36.5 269.5t-102 218.5t-157 146t-201.5 53q-57 0 -117 -12.5t-117.5 -42t-108.5 -77.5t-89.5 -118.5t-61 -165.5t-22.5 -219zM95 690q0 157 54 291
t152 231t235.5 152t304.5 55q102 0 189 -27.5t158 -76t126 -114.5t92.5 -142.5t56.5 -161.5t19 -170q0 -167 -54 -305.5t-147 -239t-216 -156t-261 -55.5q-119 0 -217.5 28.5t-177.5 79t-138 119t-98 148.5t-58.5 167.5t-19.5 176.5zM910 1546l-405 213q25 31 46 63t40 64
l358 -291z" />
    <glyph glyph-name="Oacute" unicode="&#xd3;" 
d="M280 711q0 -130 35 -250t102.5 -212.5t165.5 -148t223 -55.5q120 0 211.5 48t152.5 131.5t92 195t31 239.5q0 144 -36.5 269.5t-102 218.5t-157 146t-201.5 53q-57 0 -117 -12.5t-117.5 -42t-108.5 -77.5t-89.5 -118.5t-61 -165.5t-22.5 -219zM95 690q0 157 54 291
t152 231t235.5 152t304.5 55q102 0 189 -27.5t158 -76t126 -114.5t92.5 -142.5t56.5 -161.5t19 -170q0 -167 -54 -305.5t-147 -239t-216 -156t-261 -55.5q-119 0 -217.5 28.5t-177.5 79t-138 119t-98 148.5t-58.5 167.5t-19.5 176.5zM692 1591l342 301q20 -34 45 -64.5
t53 -53.5l-403 -228z" />
    <glyph glyph-name="Ocircumflex" unicode="&#xd4;" 
d="M280 711q0 -130 35 -250t102.5 -212.5t165.5 -148t223 -55.5q120 0 211.5 48t152.5 131.5t92 195t31 239.5q0 144 -36.5 269.5t-102 218.5t-157 146t-201.5 53q-57 0 -117 -12.5t-117.5 -42t-108.5 -77.5t-89.5 -118.5t-61 -165.5t-22.5 -219zM95 690q0 157 54 291
t152 231t235.5 152t304.5 55q102 0 189 -27.5t158 -76t126 -114.5t92.5 -142.5t56.5 -161.5t19 -170q0 -167 -54 -305.5t-147 -239t-216 -156t-261 -55.5q-119 0 -217.5 28.5t-177.5 79t-138 119t-98 148.5t-58.5 167.5t-19.5 176.5zM529 1546l-39 41l307 268h82l289 -268
l-43 -41l-291 178z" />
    <glyph glyph-name="Otilde" unicode="&#xd5;" 
d="M280 711q0 -130 35 -250t102.5 -212.5t165.5 -148t223 -55.5q120 0 211.5 48t152.5 131.5t92 195t31 239.5q0 144 -36.5 269.5t-102 218.5t-157 146t-201.5 53q-57 0 -117 -12.5t-117.5 -42t-108.5 -77.5t-89.5 -118.5t-61 -165.5t-22.5 -219zM95 690q0 157 54 291
t152 231t235.5 152t304.5 55q102 0 189 -27.5t158 -76t126 -114.5t92.5 -142.5t56.5 -161.5t19 -170q0 -167 -54 -305.5t-147 -239t-216 -156t-261 -55.5q-119 0 -217.5 28.5t-177.5 79t-138 119t-98 148.5t-58.5 167.5t-19.5 176.5zM937 1554q-44 15 -79 30.5t-65 32.5
t-58 36t-56 41l-55 -49l-49.5 -42.5l-46.5 -39.5l-29 30l180 199h60q34 -21 67 -38.5t67.5 -31t73 -25t83.5 -20.5q21 21 44 41l43 37l44 37l30 -31l-190 -207h-64z" />
    <glyph glyph-name="Odieresis" unicode="&#xd6;" 
d="M280 711q0 -130 35 -250t102.5 -212.5t165.5 -148t223 -55.5q120 0 211.5 48t152.5 131.5t92 195t31 239.5q0 144 -36.5 269.5t-102 218.5t-157 146t-201.5 53q-57 0 -117 -12.5t-117.5 -42t-108.5 -77.5t-89.5 -118.5t-61 -165.5t-22.5 -219zM95 690q0 157 54 291
t152 231t235.5 152t304.5 55q102 0 189 -27.5t158 -76t126 -114.5t92.5 -142.5t56.5 -161.5t19 -170q0 -167 -54 -305.5t-147 -239t-216 -156t-261 -55.5q-119 0 -217.5 28.5t-177.5 79t-138 119t-98 148.5t-58.5 167.5t-19.5 176.5zM598 1548l-34 34q4 38 6.5 64.5
t3.5 44.5q1 20 1 35l135 29l33 -35q-5 -38 -7 -65t-3 -44q-1 -20 -1 -33zM946 1548l-34 34q4 38 6.5 64.5t3.5 44.5q1 20 1 35l135 29l33 -35q-5 -38 -7 -65t-3 -44q-1 -20 -1 -33z" />
    <glyph glyph-name="multiply" unicode="&#xd7;" horiz-adv-x="1070" 
d="M608 647l342 -342l-70 -69l-342 342l-342 -342l-70 69l342 342l-342 342l70 70l342 -342l342 342l70 -70z" />
    <glyph glyph-name="Oslash" unicode="&#xd8;" 
d="M95 690q0 157 54 291t152 231t235.5 152t304.5 55q100 0 184.5 -26t154.5 -73l122 183l65 -45l-124 -185q58 -50 102.5 -113t75 -133.5t46 -147t15.5 -152.5q0 -167 -54 -305.5t-147 -239t-216 -156t-261 -55.5q-110 0 -202 24t-168 68l-156 -233l-62 41l155 233
q-69 52 -121 118.5t-86.5 143t-51.5 159t-17 165.5zM280 711q0 -143 41.5 -272.5t122.5 -224.5l661 993q-63 66 -140.5 102.5t-168.5 36.5q-57 0 -117 -12.5t-117.5 -42t-108.5 -77.5t-89.5 -118.5t-61 -165.5t-22.5 -219zM1293 659q0 144 -36 267.5t-101 216.5l-658 -984
q62 -54 138.5 -84t169.5 -30q120 0 211.5 48t152.5 131.5t92 195t31 239.5z" />
    <glyph glyph-name="Ugrave" unicode="&#xd9;" horiz-adv-x="1498" 
d="M78 1391q22 -4 52 -8q26 -3 63.5 -5t88.5 -2t112.5 3.5t135.5 11.5v-58q-26 -2 -45.5 -4t-36.5 -3.5t-33 -2.5t-34 -2l-10.5 -305.5t-8 -219t-5.5 -148.5t-3 -93.5l-1.5 -54t-0.5 -29.5q0 -206 98.5 -310t309.5 -104q205 0 313 118t117 360l28 753l-147 45v58
q20 -4 47 -8q23 -3 58.5 -5t84.5 -2q48 0 108 3.5t134 11.5v-58q-26 -2 -46 -4t-36.5 -3.5t-32.5 -2.5t-34 -2l-68 -796q-23 -269 -154.5 -411.5t-386.5 -142.5q-125 0 -227 26t-174.5 79.5t-112 134t-39.5 190.5q0 21 1.5 63.5l3.5 99.5l4.5 124t5.5 137.5l6 140l5.5 131
t4 111l2.5 80.5l-147 45v58v0zM911 1546l-405 213q25 31 46 63t40 64l358 -291z" />
    <glyph glyph-name="Uacute" unicode="&#xda;" horiz-adv-x="1498" 
d="M78 1391q22 -4 52 -8q26 -3 63.5 -5t88.5 -2t112.5 3.5t135.5 11.5v-58q-26 -2 -45.5 -4t-36.5 -3.5t-33 -2.5t-34 -2l-10.5 -305.5t-8 -219t-5.5 -148.5t-3 -93.5l-1.5 -54t-0.5 -29.5q0 -206 98.5 -310t309.5 -104q205 0 313 118t117 360l28 753l-147 45v58
q20 -4 47 -8q23 -3 58.5 -5t84.5 -2q48 0 108 3.5t134 11.5v-58q-26 -2 -46 -4t-36.5 -3.5t-32.5 -2.5t-34 -2l-68 -796q-23 -269 -154.5 -411.5t-386.5 -142.5q-125 0 -227 26t-174.5 79.5t-112 134t-39.5 190.5q0 21 1.5 63.5l3.5 99.5l4.5 124t5.5 137.5l6 140l5.5 131
t4 111l2.5 80.5l-147 45v58v0zM672 1591l342 301q20 -34 45 -64.5t53 -53.5l-403 -228z" />
    <glyph glyph-name="Ucircumflex" unicode="&#xdb;" horiz-adv-x="1498" 
d="M78 1391q22 -4 52 -8q26 -3 63.5 -5t88.5 -2t112.5 3.5t135.5 11.5v-58q-26 -2 -45.5 -4t-36.5 -3.5t-33 -2.5t-34 -2l-10.5 -305.5t-8 -219t-5.5 -148.5t-3 -93.5l-1.5 -54t-0.5 -29.5q0 -206 98.5 -310t309.5 -104q205 0 313 118t117 360l28 753l-147 45v58
q20 -4 47 -8q23 -3 58.5 -5t84.5 -2q48 0 108 3.5t134 11.5v-58q-26 -2 -46 -4t-36.5 -3.5t-32.5 -2.5t-34 -2l-68 -796q-23 -269 -154.5 -411.5t-386.5 -142.5q-125 0 -227 26t-174.5 79.5t-112 134t-39.5 190.5q0 21 1.5 63.5l3.5 99.5l4.5 124t5.5 137.5l6 140l5.5 131
t4 111l2.5 80.5l-147 45v58v0zM510 1546l-39 41l307 268h82l289 -268l-43 -41l-291 178z" />
    <glyph glyph-name="Udieresis" unicode="&#xdc;" horiz-adv-x="1498" 
d="M78 1391q22 -4 52 -8q26 -3 63.5 -5t88.5 -2t112.5 3.5t135.5 11.5v-58q-26 -2 -45.5 -4t-36.5 -3.5t-33 -2.5t-34 -2l-10.5 -305.5t-8 -219t-5.5 -148.5t-3 -93.5l-1.5 -54t-0.5 -29.5q0 -206 98.5 -310t309.5 -104q205 0 313 118t117 360l28 753l-147 45v58
q20 -4 47 -8q23 -3 58.5 -5t84.5 -2q48 0 108 3.5t134 11.5v-58q-26 -2 -46 -4t-36.5 -3.5t-32.5 -2.5t-34 -2l-68 -796q-23 -269 -154.5 -411.5t-386.5 -142.5q-125 0 -227 26t-174.5 79.5t-112 134t-39.5 190.5q0 21 1.5 63.5l3.5 99.5l4.5 124t5.5 137.5l6 140l5.5 131
t4 111l2.5 80.5l-147 45v58v0zM583 1548l-34 34q4 38 6.5 64.5t3.5 44.5q1 20 1 35l135 29l33 -35q-5 -38 -7 -65t-3 -44q-1 -20 -1 -33zM931 1548l-34 34q4 38 6.5 64.5t3.5 44.5q1 20 1 35l135 29l33 -35q-5 -38 -7 -65t-3 -44q-1 -20 -1 -33z" />
    <glyph glyph-name="Yacute" unicode="&#xdd;" horiz-adv-x="1244" 
d="M705 608l-17 -506l146 -45v-57l-53 7q-26 2 -64 4.5t-88 2.5q-51 0 -112.5 -3t-135.5 -11v57q26 2 46 4t37 4t33 3t34 2l12 536l-395 682l-170 43v58q25 -4 58 -8q29 -3 69.5 -5t93.5 -2t115.5 3.5t136.5 11.5v-58q-26 -3 -46 -5t-37 -3.5t-33 -2t-34 -1.5l353 -623h16
l338 592l-150 43v58q20 -4 49 -8q25 -3 61.5 -5t86.5 -2t109.5 3.5t134.5 11.5v-58q-42 -5 -73.5 -8t-68.5 -4zM504 1591l342 301q20 -34 45 -64.5t53 -53.5l-403 -228z" />
    <glyph glyph-name="Thorn" unicode="&#xde;" horiz-adv-x="1091" 
d="M596 1120q114 0 196.5 -31.5t136.5 -84.5t80 -123t26 -148q0 -91 -35.5 -169.5t-96.5 -136t-142.5 -90t-172.5 -32.5q-64 0 -98 10l2 63q33 -6 67 -6q70 0 128 25.5t100 71t65 108.5t23 137q0 160 -89.5 250t-269.5 90q-65 0 -114 -10l-31 -942l145 -45v-57l-52 7
q-26 2 -64 4.5t-89 2.5t-112 -3t-135 -11v57q26 2 45.5 4t36.5 4t33 3t34 2l43 1218l-147 45v58q22 -4 52 -8q26 -3 63.5 -5t88.5 -2t112.5 3.5t135.5 11.5v-58q-26 -2 -45.5 -4t-36.5 -3.5t-33 -2.5t-34 -2l-8 -211l79.5 6.5t112.5 3.5z" />
    <glyph glyph-name="germandbls" unicode="&#xdf;" horiz-adv-x="1087" 
d="M603 825q48 -33 96.5 -75t93.5 -89t84.5 -96.5t69 -98.5t46.5 -95t17 -86q0 -82 -26 -140t-69 -94.5t-98.5 -53.5t-113.5 -17q-92 0 -153.5 22t-98.5 47l35 234h47v-111q19 -21 44.5 -39.5t55 -32.5t62.5 -22t68 -8q78 0 111 40.5t36 131.5q-32 76 -79.5 146t-103 132.5
t-114 117.5l-113.5 103l3 62q33 40 76.5 99t82.5 131.5t66 157.5t28 177q-23 24 -54 42.5t-65 30.5t-68 18.5t-62 6.5q-66 -57 -101.5 -169t-40.5 -277q-1 -26 -2.5 -78l-3.5 -120.5l-4.5 -149l-5 -163l-5 -162.5t-5.5 -147.5t-5 -118t-4 -73.5q-11 -139 -42 -242.5
t-77.5 -172.5t-106.5 -103.5t-129 -34.5q-38 0 -87.5 5.5t-92.5 16.5l4 154q49 -19 98.5 -32t94 -21t81.5 -11.5t60 -3.5q23 60 44 176t27 281q1 24 2 71.5t3 110t4 136.5t4.5 151.5t4.5 154t5 144.5q-48 -3 -93 -6.5t-88 -7.5l4 103h180q2 54 4 94.5t4 60.5q10 139 49 238
t96 162t125.5 92.5t137.5 29.5q59 0 104.5 -17t76.5 -47.5t47 -72.5t16 -92q0 -81 -27.5 -155.5t-70 -138t-93 -116t-96.5 -90.5z" />
    <glyph glyph-name="agrave" unicode="&#xe0;" horiz-adv-x="978" 
d="M611 14q4 25 9.5 72.5t11 104.5t10 116t6.5 107l-16 4q-40 -79 -93.5 -152t-114.5 -131.5t-125.5 -99t-125.5 -55.5l-106 34q-4 25 -4.5 49.5t-0.5 49.5q0 106 20.5 205.5t57.5 186.5t86.5 159t108.5 124t123.5 80.5t130.5 28.5q32 0 59.5 -2t52.5 -5.5t50 -9t53 -12.5
q-9 -103 -15.5 -201t-10.5 -195.5t-5.5 -195t-1.5 -198.5q69 9 166 53l18 -39q-31 -21 -76 -41.5t-90.5 -36t-84.5 -25t-58 -9.5zM661 772q-31 9 -70 17t-74 8q-77 0 -135 -43t-96.5 -119.5t-58 -183.5t-19.5 -234q0 -28 1 -56t3 -57q30 4 73.5 25.5t91 59t95.5 90t87 118.5
t65.5 144t31.5 166zM674 1133l-340 311q34 25 63.5 49.5t55.5 50.5l271 -373z" />
    <glyph glyph-name="aacute" unicode="&#xe1;" horiz-adv-x="978" 
d="M611 14q4 25 9.5 72.5t11 104.5t10 116t6.5 107l-16 4q-40 -79 -93.5 -152t-114.5 -131.5t-125.5 -99t-125.5 -55.5l-106 34q-4 25 -4.5 49.5t-0.5 49.5q0 106 20.5 205.5t57.5 186.5t86.5 159t108.5 124t123.5 80.5t130.5 28.5q32 0 59.5 -2t52.5 -5.5t50 -9t53 -12.5
q-9 -103 -15.5 -201t-10.5 -195.5t-5.5 -195t-1.5 -198.5q69 9 166 53l18 -39q-31 -21 -76 -41.5t-90.5 -36t-84.5 -25t-58 -9.5zM661 772q-31 9 -70 17t-74 8q-77 0 -135 -43t-96.5 -119.5t-58 -183.5t-19.5 -234q0 -28 1 -56t3 -57q30 4 73.5 25.5t91 59t95.5 90t87 118.5
t65.5 144t31.5 166zM486 1165l252 379q28 -28 60.5 -50t64.5 -38l-329 -323z" />
    <glyph glyph-name="acircumflex" unicode="&#xe2;" horiz-adv-x="978" 
d="M611 14q4 25 9.5 72.5t11 104.5t10 116t6.5 107l-16 4q-40 -79 -93.5 -152t-114.5 -131.5t-125.5 -99t-125.5 -55.5l-106 34q-4 25 -4.5 49.5t-0.5 49.5q0 106 20.5 205.5t57.5 186.5t86.5 159t108.5 124t123.5 80.5t130.5 28.5q32 0 59.5 -2t52.5 -5.5t50 -9t53 -12.5
q-9 -103 -15.5 -201t-10.5 -195.5t-5.5 -195t-1.5 -198.5q69 9 166 53l18 -39q-31 -21 -76 -41.5t-90.5 -36t-84.5 -25t-58 -9.5zM661 772q-31 9 -70 17t-74 8q-77 0 -135 -43t-96.5 -119.5t-58 -183.5t-19.5 -234q0 -28 1 -56t3 -57q30 4 73.5 25.5t91 59t95.5 90t87 118.5
t65.5 144t31.5 166zM318 1133l-39 41l269 319h82l245 -319l-43 -41l-247 243z" />
    <glyph glyph-name="atilde" unicode="&#xe3;" horiz-adv-x="978" 
d="M611 14q4 25 9.5 72.5t11 104.5t10 116t6.5 107l-16 4q-40 -79 -93.5 -152t-114.5 -131.5t-125.5 -99t-125.5 -55.5l-106 34q-4 25 -4.5 49.5t-0.5 49.5q0 106 20.5 205.5t57.5 186.5t86.5 159t108.5 124t123.5 80.5t130.5 28.5q32 0 59.5 -2t52.5 -5.5t50 -9t53 -12.5
q-9 -103 -15.5 -201t-10.5 -195.5t-5.5 -195t-1.5 -198.5q69 9 166 53l18 -39q-31 -21 -76 -41.5t-90.5 -36t-84.5 -25t-58 -9.5zM661 772q-31 9 -70 17t-74 8q-77 0 -135 -43t-96.5 -119.5t-58 -183.5t-19.5 -234q0 -28 1 -56t3 -57q30 4 73.5 25.5t91 59t95.5 90t87 118.5
t65.5 144t31.5 166zM702 1171q-44 15 -79 30.5t-65.5 32.5t-58 36t-55.5 41l-55 -49l-50 -42.5l-47 -39.5l-29 30l181 199h59q34 -21 67 -38.5t67.5 -31t73 -25t83.5 -20.5l45 41l42.5 37l43.5 37l31 -31l-191 -207h-63z" />
    <glyph glyph-name="adieresis" unicode="&#xe4;" horiz-adv-x="978" 
d="M611 14q4 25 9.5 72.5t11 104.5t10 116t6.5 107l-16 4q-40 -79 -93.5 -152t-114.5 -131.5t-125.5 -99t-125.5 -55.5l-106 34q-4 25 -4.5 49.5t-0.5 49.5q0 106 20.5 205.5t57.5 186.5t86.5 159t108.5 124t123.5 80.5t130.5 28.5q32 0 59.5 -2t52.5 -5.5t50 -9t53 -12.5
q-9 -103 -15.5 -201t-10.5 -195.5t-5.5 -195t-1.5 -198.5q69 9 166 53l18 -39q-31 -21 -76 -41.5t-90.5 -36t-84.5 -25t-58 -9.5zM661 772q-31 9 -70 17t-74 8q-77 0 -135 -43t-96.5 -119.5t-58 -183.5t-19.5 -234q0 -28 1 -56t3 -57q30 4 73.5 25.5t91 59t95.5 90t87 118.5
t65.5 144t31.5 166zM342 1165l-34 34q4 38 6.5 64.5t3.5 44.5q1 20 1 35l135 29l33 -35q-5 -38 -7 -65t-3 -44q-1 -20 -1 -33zM655 1165l-34 34q4 38 6.5 64.5t3.5 44.5q1 20 1 35l135 29l33 -35q-5 -38 -7 -65t-3 -44q-1 -20 -1 -33z" />
    <glyph glyph-name="aring" unicode="&#xe5;" horiz-adv-x="978" 
d="M611 14q4 25 9.5 72.5t11 104.5t10 116t6.5 107l-16 4q-40 -79 -93.5 -152t-114.5 -131.5t-125.5 -99t-125.5 -55.5l-106 34q-4 25 -4.5 49.5t-0.5 49.5q0 106 20.5 205.5t57.5 186.5t86.5 159t108.5 124t123.5 80.5t130.5 28.5q32 0 59.5 -2t52.5 -5.5t50 -9t53 -12.5
q-9 -103 -15.5 -201t-10.5 -195.5t-5.5 -195t-1.5 -198.5q69 9 166 53l18 -39q-31 -21 -76 -41.5t-90.5 -36t-84.5 -25t-58 -9.5zM661 772q-31 9 -70 17t-74 8q-77 0 -135 -43t-96.5 -119.5t-58 -183.5t-19.5 -234q0 -28 1 -56t3 -57q30 4 73.5 25.5t91 59t95.5 90t87 118.5
t65.5 144t31.5 166zM545 1456q-29 0 -51 -11t-37 -29.5t-23 -42.5t-8 -50q0 -22 7 -45.5t22 -42.5t37.5 -31t54.5 -12q56 0 87.5 34.5t31.5 96.5q0 21 -7 44.5t-22 43t-38 32.5t-54 13zM342 1309q0 40 16 76.5t45.5 65t71 45.5t93.5 17q48 0 83.5 -13.5t58 -37t33.5 -53.5
t11 -63q0 -45 -18 -84t-48.5 -67.5t-71 -45t-85.5 -16.5q-52 0 -88 15t-58.5 40t-32.5 56.5t-10 64.5z" />
    <glyph glyph-name="ae" unicode="&#xe6;" horiz-adv-x="1164" 
d="M589 897q32 0 59.5 -2t52.5 -5.5t50 -9t53 -12.5q35 14 72 21.5t77 7.5q16 0 34.5 -1.5t37 -6.5t36.5 -13.5t33 -23.5l-2 -119q-43 -66 -110 -127q-29 -26 -65 -54t-80.5 -54t-98 -49.5t-115.5 -41.5q4 -87 26 -167.5t69 -135.5q84 13 163.5 57t169.5 113l27 -36
l-65.5 -58.5t-88.5 -69.5t-111 -70t-134 -60l-76 34q-42 43 -67 94t-37 108q-75 -91 -160 -153.5t-166 -82.5l-107 34q-3 25 -3.5 49.5t-0.5 49.5q0 106 20.5 205.5t57 186.5t86.5 159t108.5 124t123.5 80.5t131 28.5zM212 104q24 3 56.5 17t69 39t75 59t74.5 78
q-1 11 -1 22.5v22.5q0 60 12.5 119.5t35.5 115t55 105.5t71 90q-31 9 -69.5 17t-73.5 8q-77 0 -135 -43t-96.5 -119.5t-58 -183.5t-19.5 -234q0 -28 1 -56t3 -57zM976 750q-45 27 -92 38.5t-98 11.5h-14t-13 -1q-33 -24 -57.5 -60.5t-41.5 -81t-26.5 -95t-10.5 -103.5
q109 48 177 99t107 94q46 50 69 98z" />
    <glyph glyph-name="ccedilla" unicode="&#xe7;" horiz-adv-x="732" 
d="M487 -242q0 -43 -20.5 -79t-55 -62.5t-79.5 -41.5t-93 -15q-54 0 -103 18l4 113q34 -16 79.5 -31.5t88.5 -15.5q37 0 68.5 16t48.5 61q-28 38 -78.5 65t-107.5 52l24 143l-75 33q-62 66 -89.5 151.5t-27.5 176.5q0 67 15 134.5t44 129.5t71 115t95.5 92t117.5 61.5
t137 22.5q51 0 110 -12l-33 -123q-50 14 -90.5 22t-75 11.5t-65 4.5t-59.5 1q-34 -26 -58.5 -64.5t-40 -86t-23 -101.5t-7.5 -109q0 -48 5.5 -95t17 -90.5t29 -82t42.5 -68.5q85 13 164 57t170 113l26 -36l-65 -58.5t-88 -69.5t-112 -70q-27 -15 -56 -29l-15 -95
q31 -13 60 -28.5t51.5 -34.5t35.5 -42.5t13 -52.5z" />
    <glyph glyph-name="egrave" unicode="&#xe8;" horiz-adv-x="748" 
d="M677 733q-43 -66 -110 -127q-29 -26 -65 -54t-81 -54t-98 -49.5t-115 -41.5q3 -87 25 -167.5t69 -135.5q85 13 164 57t170 113l26 -36l-65 -58.5t-88 -69.5t-111.5 -70t-134.5 -60l-76 34q-63 66 -90 151.5t-27 176.5q0 102 34 201.5t95.5 178t147.5 127t190 48.5
q16 0 34.5 -1.5t37 -6.5t37 -13.5t33.5 -23.5zM560 750q-45 27 -91.5 38.5t-97.5 11.5h-13.5t-14.5 -1q-32 -24 -56.5 -60.5t-41.5 -81t-26.5 -95t-10.5 -102.5q108 47 176.5 98t107.5 94q46 50 68 98zM563 1133l-340 311q34 25 63.5 49.5t55.5 50.5l271 -373z" />
    <glyph glyph-name="eacute" unicode="&#xe9;" horiz-adv-x="748" 
d="M677 733q-43 -66 -110 -127q-29 -26 -65 -54t-81 -54t-98 -49.5t-115 -41.5q3 -87 25 -167.5t69 -135.5q85 13 164 57t170 113l26 -36l-65 -58.5t-88 -69.5t-111.5 -70t-134.5 -60l-76 34q-63 66 -90 151.5t-27 176.5q0 102 34 201.5t95.5 178t147.5 127t190 48.5
q16 0 34.5 -1.5t37 -6.5t37 -13.5t33.5 -23.5zM560 750q-45 27 -91.5 38.5t-97.5 11.5h-13.5t-14.5 -1q-32 -24 -56.5 -60.5t-41.5 -81t-26.5 -95t-10.5 -102.5q108 47 176.5 98t107.5 94q46 50 68 98zM416 1165l252 379q28 -28 60.5 -50t64.5 -38l-329 -323z" />
    <glyph glyph-name="ecircumflex" unicode="&#xea;" horiz-adv-x="748" 
d="M677 733q-43 -66 -110 -127q-29 -26 -65 -54t-81 -54t-98 -49.5t-115 -41.5q3 -87 25 -167.5t69 -135.5q85 13 164 57t170 113l26 -36l-65 -58.5t-88 -69.5t-111.5 -70t-134.5 -60l-76 34q-63 66 -90 151.5t-27 176.5q0 102 34 201.5t95.5 178t147.5 127t190 48.5
q16 0 34.5 -1.5t37 -6.5t37 -13.5t33.5 -23.5zM560 750q-45 27 -91.5 38.5t-97.5 11.5h-13.5t-14.5 -1q-32 -24 -56.5 -60.5t-41.5 -81t-26.5 -95t-10.5 -102.5q108 47 176.5 98t107.5 94q46 50 68 98zM252 1133l-39 41l269 319h82l245 -319l-43 -41l-247 243z" />
    <glyph glyph-name="edieresis" unicode="&#xeb;" horiz-adv-x="749" 
d="M677 733q-43 -66 -110 -127q-29 -26 -65 -54t-81 -54t-98 -49.5t-115 -41.5q3 -87 25 -167.5t69 -135.5q85 13 164 57t170 113l26 -36l-65 -58.5t-88 -69.5t-111.5 -70t-134.5 -60l-76 34q-63 66 -90 151.5t-27 176.5q0 102 34 201.5t95.5 178t147.5 127t190 48.5
q16 0 34.5 -1.5t37 -6.5t37 -13.5t33.5 -23.5zM560 750q-45 27 -91.5 38.5t-97.5 11.5h-13.5t-14.5 -1q-32 -24 -56.5 -60.5t-41.5 -81t-26.5 -95t-10.5 -102.5q108 47 176.5 98t107.5 94q46 50 68 98zM269 1165l-34 34q4 38 6.5 64.5t3.5 44.5q1 20 1 35l135 29l33 -35
q-5 -38 -7 -65t-3 -44q-1 -20 -1 -33zM582 1165l-34 34q4 38 6.5 64.5t3.5 44.5q1 20 1 35l135 29l33 -35q-5 -38 -7 -65t-3 -44q-1 -20 -1 -33z" />
    <glyph glyph-name="igrave" unicode="&#xec;" horiz-adv-x="526" 
d="M355 862q-15 -115 -23.5 -217.5t-13 -197.5t-5.5 -186t-1 -183q34 5 78 18t92 35l21 -39q-31 -21 -77 -41.5t-92.5 -36t-87 -25t-59.5 -9.5l-35 34q16 115 25 219.5t13 201.5t4.5 189.5t0.5 184.5q-30 -4 -60 -7q-26 -3 -56.5 -5t-57.5 -4l-4 43l303 61l35 -35v0z
M270 1133l-340 311q34 25 63.5 49.5t55.5 50.5l271 -373z" />
    <glyph glyph-name="iacute" unicode="&#xed;" horiz-adv-x="526" 
d="M355 862q-15 -115 -23.5 -217.5t-13 -197.5t-5.5 -186t-1 -183q34 5 78 18t92 35l21 -39q-31 -21 -77 -41.5t-92.5 -36t-87 -25t-59.5 -9.5l-35 34q16 115 25 219.5t13 201.5t4.5 189.5t0.5 184.5q-30 -4 -60 -7q-26 -3 -56.5 -5t-57.5 -4l-4 43l303 61l35 -35v0z
M226 1165l252 379q28 -28 60.5 -50t64.5 -38l-329 -323z" />
    <glyph glyph-name="icircumflex" unicode="&#xee;" horiz-adv-x="525" 
d="M355 862q-15 -115 -23.5 -217.5t-13 -197.5t-5.5 -186t-1 -183q34 5 78 18t92 35l21 -39q-31 -21 -77 -41.5t-92.5 -36t-87 -25t-59.5 -9.5l-35 34q16 115 25 219.5t13 201.5t4.5 189.5t0.5 184.5q-30 -4 -60 -7q-26 -3 -56.5 -5t-57.5 -4l-4 43l303 61l35 -35v0z
M23 1133l-39 41l269 319h82l245 -319l-43 -41l-247 243z" />
    <glyph glyph-name="idieresis" unicode="&#xef;" horiz-adv-x="526" 
d="M355 862q-15 -115 -23.5 -217.5t-13 -197.5t-5.5 -186t-1 -183q34 5 78 18t92 35l21 -39q-31 -21 -77 -41.5t-92.5 -36t-87 -25t-59.5 -9.5l-35 34q16 115 25 219.5t13 201.5t4.5 189.5t0.5 184.5q-30 -4 -60 -7q-26 -3 -56.5 -5t-57.5 -4l-4 43l303 61l35 -35v0z
M70 1165l-34 34q4 38 6.5 64.5t3.5 44.5q1 20 1 35l135 29l33 -35q-5 -38 -7 -65t-3 -44q-1 -20 -1 -33zM383 1165l-34 34q4 38 6.5 64.5t3.5 44.5q1 20 1 35l135 29l33 -35q-5 -38 -7 -65t-3 -44q-1 -20 -1 -33z" />
    <glyph glyph-name="eth" unicode="&#xf0;" horiz-adv-x="886" 
d="M844 1380l-109.5 -40.5l-112.5 -43.5q90 -118 135.5 -274.5t45.5 -343.5q0 -146 -28.5 -273t-86 -221.5t-144.5 -149t-204 -54.5q-74 0 -125 31.5t-83.5 83.5t-47 119.5t-14.5 139.5q0 57 14 119.5t41 122.5t66 115t88.5 96t108.5 65.5t127 24.5q32 0 66.5 -3.5
t61.5 -7.5q-14 88 -43.5 181t-88.5 183q-63 -28 -123 -59t-117 -67l4 103q46 23 94 43.5t98 39.5q-46 57 -106.5 108t-140.5 95l14 41q106 -29 192 -81t153 -125q62 20 124 37l125 34zM658 662q0 20 -0.5 43t-1.5 48q-19 6 -49 14.5t-64.5 16.5t-70 13.5t-66.5 5.5
q-17 0 -32.5 -2.5t-26.5 -7.5q-28 -18 -55 -52t-48 -79.5t-33.5 -102t-12.5 -119.5q0 -98 29.5 -188.5t100.5 -169.5h180q30 19 57 72t48 123t33 147t12 145v93z" />
    <glyph glyph-name="ntilde" unicode="&#xf1;" horiz-adv-x="1051" 
d="M1033 92q-31 -21 -76 -41.5t-90.5 -36t-84.5 -25t-58 -9.5l-35 34q7 65 15.5 134.5t15.5 139.5t11.5 139.5t4.5 135.5q0 57 -3.5 110t-13.5 101q-33 0 -76 -17.5t-88 -46.5t-88.5 -68t-77 -82t-54.5 -87.5t-21 -85.5v-387h-160q22 139 32.5 285t10.5 299q0 54 -1 90.5
t-2.5 62t-4 42l-4.5 30.5q-29 -4 -60 -7q-26 -3 -57 -5t-57 -4l-4 43l303 61l33 -35q0 -8 -2 -30t-5.5 -51l-7.5 -61.5t-8.5 -62t-8.5 -53t-7 -33.5l16 -4q45 59 97 112.5t109.5 96.5t119 74.5t125.5 46.5l75 -35q14 -54 19.5 -112.5t5.5 -120.5q0 -69 -5 -140.5t-10.5 -142
t-10 -138.5t-3.5 -130q34 5 78 18t92 35zM696 1171q-44 15 -79 30.5t-65.5 32.5t-58 36t-55.5 41l-55 -49l-50 -42.5l-47 -39.5l-29 30l181 199h59q34 -21 67 -38.5t67.5 -31t73 -25t83.5 -20.5l45 41l42.5 37l43.5 37l31 -31l-191 -207h-63z" />
    <glyph glyph-name="ograve" unicode="&#xf2;" horiz-adv-x="864" 
d="M783 516q0 -55 -13 -116.5t-39 -121t-63.5 -113.5t-86.5 -95t-109.5 -65.5t-130.5 -24.5q-74 0 -125.5 31.5t-84 83.5t-47 119.5t-14.5 139.5q0 59 14 122.5t41 124t67 114.5t91 94.5t113.5 64t134.5 23.5q74 0 122.5 -33t77.5 -86.5t40.5 -122t11.5 -139.5zM509 82
q28 18 54.5 52t47.5 79.5t33.5 101.5t12.5 119q0 98 -29.5 189t-100.5 170h-180q-28 -18 -55 -52t-48 -79.5t-33.5 -102t-12.5 -119.5q0 -97 29.5 -188.5t100.5 -169.5h181zM570 1133l-340 311q34 25 63.5 49.5t55.5 50.5l271 -373z" />
    <glyph glyph-name="oacute" unicode="&#xf3;" horiz-adv-x="864" 
d="M783 516q0 -55 -13 -116.5t-39 -121t-63.5 -113.5t-86.5 -95t-109.5 -65.5t-130.5 -24.5q-74 0 -125.5 31.5t-84 83.5t-47 119.5t-14.5 139.5q0 59 14 122.5t41 124t67 114.5t91 94.5t113.5 64t134.5 23.5q74 0 122.5 -33t77.5 -86.5t40.5 -122t11.5 -139.5zM509 82
q28 18 54.5 52t47.5 79.5t33.5 101.5t12.5 119q0 98 -29.5 189t-100.5 170h-180q-28 -18 -55 -52t-48 -79.5t-33.5 -102t-12.5 -119.5q0 -97 29.5 -188.5t100.5 -169.5h181zM463 1165l252 379q28 -28 60.5 -50t64.5 -38l-329 -323z" />
    <glyph glyph-name="ocircumflex" unicode="&#xf4;" horiz-adv-x="864" 
d="M783 516q0 -55 -13 -116.5t-39 -121t-63.5 -113.5t-86.5 -95t-109.5 -65.5t-130.5 -24.5q-74 0 -125.5 31.5t-84 83.5t-47 119.5t-14.5 139.5q0 59 14 122.5t41 124t67 114.5t91 94.5t113.5 64t134.5 23.5q74 0 122.5 -33t77.5 -86.5t40.5 -122t11.5 -139.5zM509 82
q28 18 54.5 52t47.5 79.5t33.5 101.5t12.5 119q0 98 -29.5 189t-100.5 170h-180q-28 -18 -55 -52t-48 -79.5t-33.5 -102t-12.5 -119.5q0 -97 29.5 -188.5t100.5 -169.5h181zM250 1133l-39 41l269 319h82l245 -319l-43 -41l-247 243z" />
    <glyph glyph-name="otilde" unicode="&#xf5;" horiz-adv-x="864" 
d="M783 516q0 -55 -13 -116.5t-39 -121t-63.5 -113.5t-86.5 -95t-109.5 -65.5t-130.5 -24.5q-74 0 -125.5 31.5t-84 83.5t-47 119.5t-14.5 139.5q0 59 14 122.5t41 124t67 114.5t91 94.5t113.5 64t134.5 23.5q74 0 122.5 -33t77.5 -86.5t40.5 -122t11.5 -139.5zM509 82
q28 18 54.5 52t47.5 79.5t33.5 101.5t12.5 119q0 98 -29.5 189t-100.5 170h-180q-28 -18 -55 -52t-48 -79.5t-33.5 -102t-12.5 -119.5q0 -97 29.5 -188.5t100.5 -169.5h181zM615 1171q-44 15 -79 30.5t-65.5 32.5t-58 36t-55.5 41l-55 -49l-50 -42.5l-47 -39.5l-29 30
l181 199h59q34 -21 67 -38.5t67.5 -31t73 -25t83.5 -20.5l45 41l42.5 37l43.5 37l31 -31l-191 -207h-63z" />
    <glyph glyph-name="odieresis" unicode="&#xf6;" horiz-adv-x="864" 
d="M783 516q0 -55 -13 -116.5t-39 -121t-63.5 -113.5t-86.5 -95t-109.5 -65.5t-130.5 -24.5q-74 0 -125.5 31.5t-84 83.5t-47 119.5t-14.5 139.5q0 59 14 122.5t41 124t67 114.5t91 94.5t113.5 64t134.5 23.5q74 0 122.5 -33t77.5 -86.5t40.5 -122t11.5 -139.5zM509 82
q28 18 54.5 52t47.5 79.5t33.5 101.5t12.5 119q0 98 -29.5 189t-100.5 170h-180q-28 -18 -55 -52t-48 -79.5t-33.5 -102t-12.5 -119.5q0 -97 29.5 -188.5t100.5 -169.5h181zM301 1165l-34 34q4 38 6.5 64.5t3.5 44.5q1 20 1 35l135 29l33 -35q-5 -38 -7 -65t-3 -44
q-1 -20 -1 -33zM614 1165l-34 34q4 38 6.5 64.5t3.5 44.5q1 20 1 35l135 29l33 -35q-5 -38 -7 -65t-3 -44q-1 -20 -1 -33z" />
    <glyph glyph-name="divide" unicode="&#xf7;" horiz-adv-x="1185" 
d="M124 696h942v-98h-942v98zM520 177l-37 36q5 40 6.5 69t3.5 48q1 22 2 37l146 31l36 -37q-5 -41 -7.5 -69t-3.5 -47q-2 -22 -1 -36zM545 898l-37 36q5 40 6.5 69t3.5 48q1 22 2 37l146 31l36 -37q-5 -41 -7.5 -69t-3.5 -47q-2 -22 -1 -36z" />
    <glyph glyph-name="oslash" unicode="&#xf8;" horiz-adv-x="953" 
d="M157 149q-18 46 -26.5 99t-8.5 110q0 60 14 124.5t41 126t67 116t91 95.5t113.5 65t134.5 24t119 -31t76 -82l165 171l48 -47l-184 -191q15 -47 21.5 -99t6.5 -106q0 -56 -13 -118.5t-39 -122.5t-63.5 -115t-87 -97t-109.5 -66.5t-131 -24.5q-70 0 -120 28.5t-82 77.5
l-189 -197l-47 48zM250 447q0 -45 5.5 -89t17.5 -89l391 407q-15 34 -35.5 65.5t-49.5 61.5h-180q-28 -18 -55 -52t-48 -80.5t-33.5 -103.5t-12.5 -120zM560 84q28 18 55 52t48 80.5t33.5 103.5t12.5 120q0 40 -5 80.5t-16 84.5l-389 -405q15 -31 35 -59.5t46 -56.5h180z
" />
    <glyph glyph-name="ugrave" unicode="&#xf9;" horiz-adv-x="1060" 
d="M718 309q-45 -59 -97 -112t-109 -96.5t-118.5 -74.5t-125.5 -46l-76 34q-14 53 -19.5 110.5t-5.5 117.5q0 85 8 172t13 174q3 54 4.5 89.5t1.5 59.5q0 25 -1 41.5t-3 30.5q-29 -4 -60 -7q-26 -3 -57 -5t-57 -4l-4 43l303 61l33 -35q-6 -65 -14.5 -134t-16 -139.5
t-12.5 -140.5t-5 -137q0 -55 5 -108t14 -101q33 0 76 16t88 43.5t88.5 65t77.5 80.5t55 89.5t22 92.5l5 320q-30 -4 -61 -7q-26 -3 -56.5 -5t-57.5 -4l-4 43l303 61l35 -35q-11 -86 -18 -161t-11.5 -144t-7 -134t-4.5 -130q-2 -38 -2 -78.5v-77.5v-59q34 5 78 18t92 35
l21 -39q-31 -21 -76 -41.5t-90.5 -36t-84.5 -25t-58 -9.5l-35 34l16.5 140.5t24.5 150.5zM617 1133l-340 311q34 25 63.5 49.5t55.5 50.5l271 -373z" />
    <glyph glyph-name="uacute" unicode="&#xfa;" horiz-adv-x="1060" 
d="M718 309q-45 -59 -97 -112t-109 -96.5t-118.5 -74.5t-125.5 -46l-76 34q-14 53 -19.5 110.5t-5.5 117.5q0 85 8 172t13 174q3 54 4.5 89.5t1.5 59.5q0 25 -1 41.5t-3 30.5q-29 -4 -60 -7q-26 -3 -57 -5t-57 -4l-4 43l303 61l33 -35q-6 -65 -14.5 -134t-16 -139.5
t-12.5 -140.5t-5 -137q0 -55 5 -108t14 -101q33 0 76 16t88 43.5t88.5 65t77.5 80.5t55 89.5t22 92.5l5 320q-30 -4 -61 -7q-26 -3 -56.5 -5t-57.5 -4l-4 43l303 61l35 -35q-11 -86 -18 -161t-11.5 -144t-7 -134t-4.5 -130q-2 -38 -2 -78.5v-77.5v-59q34 5 78 18t92 35
l21 -39q-31 -21 -76 -41.5t-90.5 -36t-84.5 -25t-58 -9.5l-35 34l16.5 140.5t24.5 150.5zM492 1165l252 379q28 -28 60.5 -50t64.5 -38l-329 -323z" />
    <glyph glyph-name="ucircumflex" unicode="&#xfb;" horiz-adv-x="1060" 
d="M718 309q-45 -59 -97 -112t-109 -96.5t-118.5 -74.5t-125.5 -46l-76 34q-14 53 -19.5 110.5t-5.5 117.5q0 85 8 172t13 174q3 54 4.5 89.5t1.5 59.5q0 25 -1 41.5t-3 30.5q-29 -4 -60 -7q-26 -3 -57 -5t-57 -4l-4 43l303 61l33 -35q-6 -65 -14.5 -134t-16 -139.5
t-12.5 -140.5t-5 -137q0 -55 5 -108t14 -101q33 0 76 16t88 43.5t88.5 65t77.5 80.5t55 89.5t22 92.5l5 320q-30 -4 -61 -7q-26 -3 -56.5 -5t-57.5 -4l-4 43l303 61l35 -35q-11 -86 -18 -161t-11.5 -144t-7 -134t-4.5 -130q-2 -38 -2 -78.5v-77.5v-59q34 5 78 18t92 35
l21 -39q-31 -21 -76 -41.5t-90.5 -36t-84.5 -25t-58 -9.5l-35 34l16.5 140.5t24.5 150.5zM318 1133l-39 41l269 319h82l245 -319l-43 -41l-247 243z" />
    <glyph glyph-name="udieresis" unicode="&#xfc;" horiz-adv-x="1060" 
d="M718 309q-45 -59 -97 -112t-109 -96.5t-118.5 -74.5t-125.5 -46l-76 34q-14 53 -19.5 110.5t-5.5 117.5q0 85 8 172t13 174q3 54 4.5 89.5t1.5 59.5q0 25 -1 41.5t-3 30.5q-29 -4 -60 -7q-26 -3 -57 -5t-57 -4l-4 43l303 61l33 -35q-6 -65 -14.5 -134t-16 -139.5
t-12.5 -140.5t-5 -137q0 -55 5 -108t14 -101q33 0 76 16t88 43.5t88.5 65t77.5 80.5t55 89.5t22 92.5l5 320q-30 -4 -61 -7q-26 -3 -56.5 -5t-57.5 -4l-4 43l303 61l35 -35q-11 -86 -18 -161t-11.5 -144t-7 -134t-4.5 -130q-2 -38 -2 -78.5v-77.5v-59q34 5 78 18t92 35
l21 -39q-31 -21 -76 -41.5t-90.5 -36t-84.5 -25t-58 -9.5l-35 34l16.5 140.5t24.5 150.5zM360 1165l-34 34q4 38 6.5 64.5t3.5 44.5q1 20 1 35l135 29l33 -35q-5 -38 -7 -65t-3 -44q-1 -20 -1 -33zM673 1165l-34 34q4 38 6.5 64.5t3.5 44.5q1 20 1 35l135 29l33 -35
q-5 -38 -7 -65t-3 -44q-1 -20 -1 -33z" />
    <glyph glyph-name="yacute" unicode="&#xfd;" horiz-adv-x="902" 
d="M474 2l-88 -157t-95 -155t-100 -136t-103 -99l-96 137q55 31 109 67.5t105.5 82.5t99.5 104.5t93 133.5l-78 172.5t-74.5 191.5t-65 215t-49.5 244l-153 -17l-4 43l254 68l45 -18q3 -69 12.5 -137t23.5 -132.5t31 -124t34 -111.5q40 -121 89 -229h19l96 205
q62 133 86.5 240.5t24.5 179.5q0 26 -3 46t-8 36l168 45q3 -15 3.5 -30.5t0.5 -30.5q0 -42 -10 -88.5t-34 -106.5t-62.5 -137.5t-95.5 -181.5zM387 1165l252 379q28 -28 60.5 -50t64.5 -38l-329 -323z" />
    <glyph glyph-name="thorn" unicode="&#xfe;" horiz-adv-x="902" 
d="M256 104q31 -9 69.5 -16.5t73.5 -7.5q74 0 129.5 35.5t92 94t55 134t18.5 154.5q0 74 -15.5 145t-47.5 131q-29 0 -67 -13.5t-78.5 -38.5t-79.5 -60t-70 -79.5t-50.5 -96.5t-21.5 -111zM299 643q44 51 87.5 91t90 70.5t97 53.5t108.5 39l86 -35q29 -62 43 -127.5
t14 -130.5q0 -80 -19 -157t-52.5 -146.5t-79.5 -128t-101.5 -101.5t-117.5 -67t-127 -24q-23 0 -42 1t-34 3l-10 -441q29 2 60 6q26 2 56.5 5t57.5 5l4 -43l-303 -61l-35 35q43 470 64 964.5t32 1003.5q-30 -4 -60 -7q-26 -3 -56.5 -5t-57.5 -4l-4 43l303 61l33 -35
q-2 -2 -5 -38.5t-7 -97.5l-9 -143.5l-10.5 -177.5l-11 -199l-10.5 -208z" />
    <glyph glyph-name="ydieresis" unicode="&#xff;" horiz-adv-x="902" 
d="M474 2l-88 -157t-95 -155t-100 -136t-103 -99l-96 137q55 31 109 67.5t105.5 82.5t99.5 104.5t93 133.5l-78 172.5t-74.5 191.5t-65 215t-49.5 244l-153 -17l-4 43l254 68l45 -18q3 -69 12.5 -137t23.5 -132.5t31 -124t34 -111.5q40 -121 89 -229h19l96 205
q62 133 86.5 240.5t24.5 179.5q0 26 -3 46t-8 36l168 45q3 -15 3.5 -30.5t0.5 -30.5q0 -42 -10 -88.5t-34 -106.5t-62.5 -137.5t-95.5 -181.5zM303 1165l-34 34q4 38 6.5 64.5t3.5 44.5q1 20 1 35l135 29l33 -35q-5 -38 -7 -65t-3 -44q-1 -20 -1 -33zM616 1165l-34 34
q4 38 6.5 64.5t3.5 44.5q1 20 1 35l135 29l33 -35q-5 -38 -7 -65t-3 -44q-1 -20 -1 -33z" />
    <glyph glyph-name="dotlessi" unicode="&#x131;" horiz-adv-x="526" 
d="M355 862q-15 -115 -23.5 -217.5t-13 -197.5t-5.5 -186t-1 -183q34 5 78 18t92 35l21 -39q-31 -21 -77 -41.5t-92.5 -36t-87 -25t-59.5 -9.5l-35 34q16 115 25 219.5t13 201.5t4.5 189.5t0.5 184.5q-30 -4 -60 -7q-26 -3 -56.5 -5t-57.5 -4l-4 43l303 61l35 -35v0z" />
    <glyph glyph-name="OE" unicode="&#x152;" horiz-adv-x="2064" 
d="M1428 1309q-8 -82 -11.5 -166.5l-6.5 -155.5l-9 -225l426 22l-10 -127q-60 8 -122 14t-118 10t-103 6.5t-77 4.5l-18 -614l453 16l100 211h64l-78 -325q-106 3 -204 8t-186 10t-165 8.5t-141 3.5l6 175q-88 -101 -204.5 -157.5t-250.5 -56.5q-116 0 -211.5 28.5
t-170.5 79t-130.5 119t-92 148.5t-54.5 167.5t-18 175.5q0 158 49.5 291.5t139 231t215 152.5t277.5 55q82 0 154 -22t133 -61t110.5 -93.5t85.5 -118.5l9 254q103 0 173 -0.5t119.5 -0.5h84h64.5q80 0 151 4t127 10l-31 -338h-62l-28 225zM282 710q0 -125 32 -244.5
t95 -213t156 -150.5t216 -57q106 0 191.5 44.5t146 125.5t93 195t32.5 253q0 144 -35 268.5t-97.5 217t-149.5 145t-191 52.5q-53 0 -110 -12t-111.5 -41t-103 -76t-85 -118t-58 -167t-21.5 -222z" />
    <glyph glyph-name="oe" unicode="&#x153;" horiz-adv-x="1143" 
d="M531 897q57 0 98.5 -20t70.5 -55q50 35 108 55t124 20q16 0 34.5 -1.5t37 -6.5t37 -13.5t33.5 -23.5l-2 -119q-43 -66 -110 -127q-29 -26 -65 -54t-81 -54t-98 -49.5t-115 -41.5q3 -87 25 -167.5t69 -135.5q84 13 163.5 57t170.5 113l26 -36l-65 -58.5t-88 -69.5
t-111.5 -70t-134.5 -60l-76 34q-8 8 -15 16.5l-14 17.5q-45 -32 -98.5 -50t-114.5 -18q-74 0 -125 31.5t-83.5 83.5t-47 119.5t-14.5 139.5q0 59 14 122.5t41 124t67 114.5t91 94.5t113.5 64t134.5 23.5zM198 440q0 -98 29.5 -188.5t100.5 -169.5h202q-35 58 -50 124.5
t-15 135.5q0 100 32 196.5t91 174.5q-23 41 -61 80h-180q-28 -18 -55 -52t-48 -79.5t-33.5 -102t-12.5 -119.5zM955 750q-45 27 -91.5 38.5t-97.5 11.5h-15t-13 -1q-32 -24 -56.5 -60.5t-41.5 -81t-26.5 -95t-10.5 -102.5q108 47 176.5 98t107.5 94q46 50 68 98z" />
    <glyph glyph-name="Ydieresis" unicode="&#x178;" horiz-adv-x="1244" 
d="M705 608l-17 -506l146 -45v-57l-53 7q-26 2 -64 4.5t-88 2.5q-51 0 -112.5 -3t-135.5 -11v57q26 2 46 4t37 4t33 3t34 2l12 536l-395 682l-170 43v58q25 -4 58 -8q29 -3 69.5 -5t93.5 -2t115.5 3.5t136.5 11.5v-58q-26 -3 -46 -5t-37 -3.5t-33 -2t-34 -1.5l353 -623h16
l338 592l-150 43v58q20 -4 49 -8q25 -3 61.5 -5t86.5 -2t109.5 3.5t134.5 11.5v-58q-42 -5 -73.5 -8t-68.5 -4zM392 1548l-34 34q4 38 6.5 64.5t3.5 44.5q1 20 1 35l135 29l33 -35q-5 -38 -7 -65t-3 -44q-1 -20 -1 -33zM740 1548l-34 34q4 38 6.5 64.5t3.5 44.5q1 20 1 35
l135 29l33 -35q-5 -38 -7 -65t-3 -44q-1 -20 -1 -33z" />
    <glyph glyph-name="circumflex" unicode="&#x2c6;" horiz-adv-x="801" 
d="M141 1133l-39 41l269 319h82l245 -319l-43 -41l-247 243z" />
    <glyph glyph-name="caron" unicode="&#x2c7;" horiz-adv-x="801" 
d="M659 1493l39 -41l-268 -319h-82l-246 319l43 41l248 -244z" />
    <glyph glyph-name="ring" unicode="&#x2da;" horiz-adv-x="616" 
d="M305 1456q-29 0 -51 -11t-37 -29.5t-23 -42.5t-8 -50q0 -22 7 -45.5t22 -42.5t37.5 -31t54.5 -12q56 0 87.5 34.5t31.5 96.5q0 21 -7 44.5t-22 43t-38 32.5t-54 13zM102 1309q0 40 16 76.5t45.5 65t71 45.5t93.5 17q48 0 83.5 -13.5t58 -37t33.5 -53.5t11 -63
q0 -45 -18 -84t-48.5 -67.5t-71 -45t-85.5 -16.5q-52 0 -88 15t-58.5 40t-32.5 56.5t-10 64.5z" />
    <glyph glyph-name="tilde" unicode="&#x2dc;" horiz-adv-x="897" 
d="M541 1171q-44 15 -79 30.5t-65.5 32.5t-58 36t-55.5 41l-55 -49l-50 -42.5l-47 -39.5l-29 30l181 199h59q34 -21 67 -38.5t67.5 -31t73 -25t83.5 -20.5l45 41l42.5 37l43.5 37l31 -31l-191 -207h-63z" />
    <glyph glyph-name="endash" unicode="&#x2013;" horiz-adv-x="1195" 
d="M1048 430h-912l4 115h912z" />
    <glyph glyph-name="emdash" unicode="&#x2014;" horiz-adv-x="1537" 
d="M1390 430h-1254l4 115h1254z" />
    <glyph glyph-name="quoteleft" unicode="&#x2018;" horiz-adv-x="378" 
d="M393 1524q-32 -48 -52.5 -91.5t-32 -87t-15.5 -87t-4 -91.5q0 -21 1 -44.5t3 -47.5l-152 -33l-39 39q3 61 26 124t58.5 123.5t81 117.5t94.5 108z" />
    <glyph glyph-name="quoteright" unicode="&#x2019;" horiz-adv-x="362" 
d="M92 1073q32 48 52.5 91.5t32 87t15.5 87t4 91.5q0 21 -1 44.5t-3 47.5l152 33l39 -39q-3 -62 -26 -124.5t-58.5 -123t-81 -117.5t-94.5 -108z" />
    <glyph glyph-name="quotesinglbase" unicode="&#x201a;" horiz-adv-x="405" 
d="M-7 -281q32 48 52.5 91.5t32 87t15.5 87t4 91.5q0 21 -1 44.5t-3 47.5l152 33l39 -39q-3 -62 -26 -124.5t-58.5 -123t-81 -117.5t-94.5 -108z" />
    <glyph glyph-name="quotedblleft" unicode="&#x201c;" horiz-adv-x="683" 
d="M393 1524q-32 -48 -52.5 -91.5t-32 -87t-15.5 -87t-4 -91.5q0 -21 1 -44.5t3 -47.5l-152 -33l-39 39q3 61 26 124t58.5 123.5t81 117.5t94.5 108zM699 1524q-32 -48 -52.5 -91.5t-32 -87t-15.5 -87t-4 -91.5q0 -21 1 -44.5t3 -47.5l-152 -33l-39 39q3 61 26 124
t58.5 123.5t81 117.5t94.5 108z" />
    <glyph glyph-name="quotedblright" unicode="&#x201d;" horiz-adv-x="666" 
d="M92 1073q32 48 52.5 91.5t32 87t15.5 87t4 91.5q0 21 -1 44.5t-3 47.5l152 33l39 -39q-3 -62 -26 -124.5t-58.5 -123t-81 -117.5t-94.5 -108zM397 1073q32 48 52.5 91.5t32 87t15.5 87t4 91.5q0 21 -1 44.5t-3 47.5l152 33l39 -39q-3 -62 -26 -124.5t-58.5 -123
t-81 -117.5t-94.5 -108z" />
    <glyph glyph-name="quotedblbase" unicode="&#x201e;" horiz-adv-x="710" 
d="M-7 -281q32 48 52.5 91.5t32 87t15.5 87t4 91.5q0 21 -1 44.5t-3 47.5l152 33l39 -39q-3 -62 -26 -124.5t-58.5 -123t-81 -117.5t-94.5 -108zM298 -281q32 48 52.5 91.5t32 87t15.5 87t4 91.5q0 21 -1 44.5t-3 47.5l152 33l39 -39q-3 -62 -26 -124.5t-58.5 -123
t-81 -117.5t-94.5 -108z" />
    <glyph glyph-name="bullet" unicode="&#x2022;" horiz-adv-x="625" 
d="M143 696q0 36 13.5 67.5t36.5 55t54.5 36.5t67.5 13t68 -13t55 -36.5t36.5 -55t13.5 -67.5t-13.5 -67.5t-36.5 -54.5t-55 -36.5t-68 -13.5t-67.5 13.5t-54.5 36.5t-36.5 54.5t-13.5 67.5z" />
    <glyph glyph-name="guilsinglleft" unicode="&#x2039;" horiz-adv-x="667" 
d="M574 117l-32 -31l-492 436l522 459l33 -31l-334 -428z" />
    <glyph glyph-name="guilsinglright" unicode="&#x203a;" horiz-adv-x="666" 
d="M90 950l33 31l489 -459l-520 -436l-33 31l332 405z" />
    <glyph glyph-name="fraction" unicode="&#x2044;" horiz-adv-x="963" 
d="M-43 31l1004 1384l57 -39l-1003 -1392z" />
    <glyph glyph-name="foursuperior" unicode="&#x2074;" horiz-adv-x="643" 
d="M351 1057h-285l2 37l367 460l37 -16l-15 -420q25 2 46 2.5t36 2.5q18 1 31 3l-26 -69h-89q-1 -26 -1.5 -41t-0.5 -23v-11.5v-5.5q0 -36 5 -57t14 -31.5t21 -14t26 -5.5l31 -4v-39q-31 5 -66.5 8t-77.5 3q-35 0 -75 -3t-86 -8v39q35 3 54.5 4.5l45.5 3.5zM142 1108
q51 0 105.5 1.5t105.5 3.5l10 273z" />
    <glyph glyph-name="Euro" unicode="&#x20ac;" horiz-adv-x="1320" 
d="M79 840h205q26 136 88 243.5t148 182t189.5 114t211.5 39.5q91 0 175 -17.5t146 -39.5l-28 -334h-62l-24 229q-35 36 -93 62.5t-133 26.5q-76 0 -149 -34t-133 -98.5t-102 -158.5t-56 -215h676l-25 -70q-98 -1 -207 -2q-94 -2 -211 -3.5t-239 -6.5v-40q0 -50 3 -95h603
l-25 -70q-83 0 -176 -1q-80 -1 -182 -3t-212 -6q20 -136 67.5 -229.5t111.5 -151t138 -82.5t147 -25q35 0 64.5 3t58.5 10.5t61 20t72 30.5l20 -58q-83 -52 -168.5 -71t-156.5 -19q-120 0 -223 37.5t-182.5 109.5t-131.5 176.5t-69 239.5l-108.5 -6t-100.5 -8l4 103h198
q-1 9 -1 18v19q0 22 1 43.5t3 46.5q-54 -3 -103 -6t-94 -7z" />
    <glyph glyph-name="minus" unicode="&#x2212;" horiz-adv-x="1277" 
d="M1110 598h-942v98h942v-98z" />
    <glyph glyph-name="f_f" unicode="&#xfb00;" horiz-adv-x="1100" 
d="M1089 766q-49 -1 -120 1q-62 2 -133 6q-1 -66 -4 -143q-2 -83 -5 -168.5t-5.5 -166.5t-5.5 -148q-7 -165 -32.5 -282.5t-76.5 -191.5t-131 -108.5t-196 -34.5q-47 0 -107 6q-50 4 -95 13q-39 -42 -85 -64q-60 -30 -129 -30q-38 0 -87.5 5.5t-92.5 16.5l4 154
q49 -19 99 -32t94.5 -21t81 -11.5t59.5 -3.5q12 30 23 69.5t20.5 91.5t16.5 117.5t10 147.5q1 25 2.5 76t3 118.5t3.5 147.5t4.5 162t5.5 162t6 148v12l-43 4l-95.5 9.5t-40.5 5.5l4 43h178l5 89q7 150 39.5 250.5t87.5 161t131.5 85.5t172.5 25q47 0 106 -6q55 -5 103 -15
q35 37 77 57q61 30 130 30q38 0 87.5 -5.5t92.5 -16.5l-5 -149q-49 19 -98.5 31.5t-94 19.5t-81 9.5t-59.5 2.5q-12 -30 -23.5 -69.5t-21 -91.5t-16.5 -117.5t-9 -147.5l-4 -137q56 1 98 2q53 2 89 3.5t66 2.5zM685 144l4.5 152t5.5 172.5l6 174.5q2 73 4 136l-58 4l-174 12
l-125 10v-20l-4.5 -149.5l-5 -162.5t-5.5 -161.5l-5.5 -146.5l-4.5 -116.5t-4 -71.5q-10 -139 -41 -238q-7 -22 -15 -43q48 -17 96 -29q54 -13 102 -20.5t87.5 -11t64.5 -3.5q12 30 24.5 71.5t22.5 102t16.5 143.5t8.5 195zM676 1355q-53 13 -101 19.5t-87.5 9t-64.5 2.5
q-12 -30 -24 -70.5t-21.5 -93.5t-16.5 -119.5t-9 -148.5l-1 -74v-3h26q144 1 251 2q43 1 81 1q2 52 4 91q2 41 4 61q10 139 41 238q9 29 19 56q-50 17 -101 29z" />
    <glyph glyph-name="f_f_i" unicode="&#xfb03;" horiz-adv-x="1522" 
d="M1196 769q-60 -1 -140 1t-171 6l-49 2q-1 -68 -4 -148q-2 -83 -5 -168.5t-5.5 -166.5t-5.5 -148q-7 -165 -32.5 -282.5t-76.5 -191.5t-131 -108.5t-196 -34.5q-47 0 -107 6q-50 4 -95 13q-39 -42 -85 -64q-60 -30 -129 -30q-38 0 -87.5 5.5t-92.5 16.5l4 154
q49 -19 99 -32t94.5 -21t81 -11.5t59.5 -3.5q12 30 23 69.5t20.5 91.5t16.5 117.5t10 147.5q1 25 2.5 76t3 118.5t3.5 147.5t4.5 162t5.5 162t6 148v13q-16 2 -32 3q-63 5 -102.5 8.5t-44.5 5.5l4 45h178l5 88q7 150 39.5 250.5t87.5 161t131.5 85.5t172.5 25q47 0 106 -6
q57 -5 106 -15q44 42 99 62q70 25 153 25q43 0 97 -5.5t102 -16.5l-6 -149q-59 19 -118 31.5t-112 19.5t-96.5 9.5t-71.5 2.5q-14 -34 -25.5 -74t-21 -91t-16 -115t-8.5 -146l-4 -137q76 1 136 3q91 2 156 4t109 4t80 3l35 -35q-15 -115 -23.5 -217.5t-13 -197.5t-5.5 -186
t-1 -183q34 5 78 18t92 35l20 -39q-31 -21 -77 -41.5t-92.5 -36t-86.5 -25t-59 -9.5l-35 34q15 109 23.5 208t13 191.5t5.5 180.5t1 175zM343 635q-2 -80 -4.5 -162t-5.5 -161.5l-5.5 -146.5l-4.5 -116.5t-4 -71.5q-10 -139 -41 -238q-8 -25 -17 -48q48 -18 98 -29
q54 -12 102 -18.5t87.5 -9t64.5 -2.5q12 30 24.5 71.5t22.5 102t16.5 143.5t8.5 195l4.5 152t5.5 172.5l6 174.5q2 76 4 142h-8q-97 6 -190 11l-159 10v-21q-2 -69 -5 -150zM717 1032q11 150 44 250l16 44q-50 18 -100 29q-54 13 -102 19.5t-87.5 9t-64.5 2.5
q-12 -30 -24 -70.5t-21.5 -93.5t-16.5 -119.5t-9 -148.5l-1 -74v-2q51 0 98 1q146 1 260 2q2 51 4 90q2 41 4 61z" />
    <glyph glyph-name="f_f_l" unicode="&#xfb04;" horiz-adv-x="1580" 
d="M916 1452q-14 -34 -26 -75t-21.5 -93t-16 -117t-8.5 -147l-4 -137q56 1 98 2q53 2 89 3.5t66 2.5l-4 -125q-49 -1 -120 1q-62 2 -133 6q-1 -66 -4 -143q-2 -83 -5 -168.5t-5.5 -166.5t-5.5 -148q-7 -165 -32.5 -282.5t-76.5 -191.5t-131 -108.5t-196 -34.5q-47 0 -107 6
q-50 4 -95 13q-39 -42 -85 -64q-60 -30 -129 -30q-38 0 -87.5 5.5t-92.5 16.5l4 154q49 -19 99 -32t94.5 -21t81 -11.5t59.5 -3.5q12 30 23 69.5t20.5 91.5t16.5 117.5t10 147.5q1 25 2.5 76t3 118.5t3.5 147.5t4.5 162t5.5 162t6 148v12l-43 4l-95.5 9.5t-40.5 5.5l4 43
h178l5 89q7 150 39.5 250.5t87.5 161t131.5 85.5t172.5 25q47 0 106 -6q57 -5 106 -15q44 42 99 62q70 25 153 25q41 0 80.5 -5.5t84.5 -16.5l110 22l35 -34q-13 -113 -22 -236.5t-15 -251.5t-10 -256.5t-6 -251t-2.5 -236t-0.5 -210.5q69 9 164 53l21 -39
q-31 -21 -76 -41.5t-90.5 -36t-85 -25t-58.5 -9.5l-34 34q12 105 21 220.5t15 236t9.5 243t5.5 240t3 228.5t1 208q-52 19 -104.5 31.5t-100 19t-86.5 9t-63 2.5zM343 635q-2 -80 -4.5 -162t-5.5 -161.5l-5.5 -146.5l-4.5 -116.5t-4 -71.5q-10 -139 -41 -238q-8 -25 -17 -48
q48 -18 98 -29q54 -12 102 -18.5t87.5 -9t64.5 -2.5q12 30 24.5 71.5t22.5 102t16.5 143.5t8.5 195l4.5 152t5.5 172.5l6 174.5q2 73 4 136l-58 4l-174 12l-125 10v-20q-2 -69 -5 -150zM677 1355q-54 13 -102 19.5t-87.5 9t-64.5 2.5q-12 -30 -24 -70.5t-21.5 -93.5
t-16.5 -119.5t-9 -148.5l-1 -74v-3h26q144 1 251 2q43 1 81 1q2 52 4 91q2 41 4 61q11 150 44 250l16 44q-50 18 -100 29z" />
    <glyph glyph-name="f_l" unicode="&#xfb02;" horiz-adv-x="1092" 
d="M942 1520q-13 -113 -22 -236.5t-15 -251.5t-10 -256.5t-6 -251t-2.5 -236t-0.5 -210.5q69 9 164 53l21 -39q-31 -21 -76 -41.5t-90.5 -36t-85 -25t-58.5 -9.5l-34 34q12 105 21 220.5t15 236t9.5 243t5.5 240t3 228.5t1 208q-52 19 -105 31.5t-100.5 19t-87 9t-63.5 2.5
q-12 -30 -24 -70.5t-21.5 -93.5t-16.5 -119.5t-9 -148.5l-4 -140q75 2 139.5 4.5t112.5 6.5l-4 -125q-48 0 -113.5 5.5t-137.5 13.5l-4.5 -149.5l-5 -162.5t-5.5 -161.5l-5.5 -146.5l-4.5 -116.5t-4 -71.5q-10 -139 -41 -238t-77.5 -162t-107 -92.5t-129.5 -29.5
q-38 0 -87.5 5.5t-92.5 16.5l4 154q49 -19 99 -32t94.5 -21t81 -11.5t59.5 -3.5q12 30 23 69.5t20.5 91.5t16.5 117.5t10 147.5q1 25 2.5 76l3.5 118.5l4.5 147.5l5 162l5 162l4.5 148q-56 8 -103 16t-76 15l2 43h180q2 54 4 94.5t4 60.5q10 143 41.5 242.5t79.5 161.5
t112 90t141 28q20 0 44.5 -1.5t50.5 -4.5t51.5 -7t48.5 -9l110 22l35 -34v0z" />
    <glyph glyph-name="f_b" horiz-adv-x="1510" 
d="M903 600q42 57 84 105t88 85.5t98.5 64.5t116.5 42l86 -35q31 -65 44 -131t13 -131q0 -82 -19.5 -159.5t-54 -146.5t-81.5 -126.5t-102.5 -99t-117 -65t-123.5 -23.5q-36 0 -65 2.5t-55 7t-51.5 11.5l-53.5 15l17.5 200.5t16 202t14.5 210.5t12 226.5t8.5 251t4.5 283.5
q-52 19 -105 31.5t-101 19t-87 9t-64 2.5q-12 -30 -24 -70.5t-21.5 -93.5t-16.5 -119.5t-9 -148.5l-4 -140q75 2 139.5 4.5t112.5 6.5l-4 -125q-48 0 -113.5 5.5t-137.5 13.5l-4.5 -149.5l-5 -162.5t-5.5 -161.5l-5.5 -146.5l-4.5 -116.5t-4 -71.5q-10 -139 -41 -238
t-77.5 -162t-107 -92.5t-129.5 -29.5q-38 0 -87.5 5.5t-92.5 16.5l4 154q49 -19 99 -32t94.5 -21t81 -11.5t59.5 -3.5q12 30 23 69.5t20.5 91.5t16.5 117.5t10 147.5q1 25 2.5 76l3.5 118.5l4.5 147.5l5 162l5 162l4.5 148q-56 8 -103 16t-76 15l2 43h180q2 54 4 94.5
t4 60.5q10 139 40.5 238t78.5 162t112 92.5t142 29.5q20 0 44.5 -1.5t50 -4.5t51 -7t48.5 -10l114 23l33 -34q-2 -3 -5 -43t-7.5 -107l-10 -156t-11 -190l-11.5 -208.5t-11 -211.5zM864 104q31 -9 69.5 -16.5t73.5 -7.5q69 0 124 33.5t93.5 90.5t59 132t20.5 158
q0 71 -15.5 141.5t-49.5 138.5q-44 -1 -105.5 -33t-119 -92.5t-99 -148.5t-45.5 -201z" />
    <glyph glyph-name="f_h" horiz-adv-x="1624" 
d="M943 1520q-23 -214 -37 -447.5l-31 -501.5l16 -4q45 59 97 112.5t109.5 96.5t119 74.5t125.5 46.5l76 -35q14 -54 19 -112.5t5 -120.5q0 -69 -4.5 -140.5t-10 -142t-10 -138.5t-3.5 -130q34 5 78 18t92 35l20 -39q-31 -21 -76 -41.5t-90.5 -36t-84.5 -25t-58 -9.5l-35 34
l16.5 134.5t15 139.5t11 139.5t4.5 135.5q0 57 -3.5 109t-12.5 100q-33 0 -76 -17t-88 -46t-88.5 -68t-77.5 -81.5t-55 -87t-21 -85.5v-387h-159q15 142 26.5 285.5t16.5 298.5q4 121 6.5 229t4 206.5t2 190t0.5 180.5q-52 19 -105 31.5t-100.5 19t-87 9t-63.5 2.5
q-12 -30 -24 -70.5t-21.5 -93.5t-16.5 -119.5t-9 -148.5l-4 -140q75 2 139.5 4.5t112.5 6.5l-4 -125q-48 0 -113.5 5.5t-137.5 13.5l-4.5 -149.5l-5 -162.5t-5.5 -161.5l-5.5 -146.5l-4.5 -116.5t-4 -71.5q-10 -139 -41 -238t-77.5 -162t-107 -92.5t-129.5 -29.5
q-38 0 -87.5 5.5t-92.5 16.5l4 154q49 -19 99 -32t94.5 -21t81 -11.5t59.5 -3.5q12 30 23 69.5t20.5 91.5t16.5 117.5t10 147.5q1 25 2.5 76l3.5 118.5l4.5 147.5l5 162l5 162l4.5 148q-56 8 -103 16t-76 15l2 43h180q2 54 4 94.5t4 60.5q10 143 41.5 242.5t79.5 161.5
t112 90t141 28q20 0 44.5 -1.5t50.5 -4.5t51.5 -7t48.5 -9l110 22z" />
    <glyph glyph-name="f_i" unicode="&#xfb01;" horiz-adv-x="1032" 
d="M866 862q-15 -115 -23.5 -217.5t-13 -197.5t-5.5 -186t-1 -183q34 5 78 18t92 35l20 -39q-31 -21 -77 -41.5t-92.5 -36t-86.5 -25t-59 -9.5l-35 34q15 109 23.5 208t13 191.5t5.5 180.5t1 175q-80 3 -170.5 8.5l-187.5 11.5q-4 -69 -7 -149.5t-5.5 -163.5l-5 -163
l-4.5 -147l-3.5 -117t-3.5 -72q-10 -139 -41 -238t-77.5 -162t-107 -92.5t-129.5 -29.5q-38 0 -87.5 5.5t-92.5 16.5l4 154q49 -19 99 -32t94.5 -21t81 -11.5t59.5 -3.5q12 30 23 69.5t20.5 91.5t16.5 117.5t10 147.5q1 25 2.5 76l3.5 118.5l4.5 147.5l5 162l5 162l4.5 148
q-56 8 -103 16t-76 15l2 43h180q2 54 4 94.5t4 60.5q11 150 44 250.5t85 161t121 85.5t152 25q43 0 97 -5.5t102 -16.5l-6 -149q-59 19 -118 31.5t-112 19.5t-96.5 9.5t-71.5 2.5q-14 -34 -25.5 -74t-20.5 -91t-15.5 -115t-8.5 -146l-4 -140q87 1 152.5 2.5t119.5 3.5t103 5
t105 6l35 -35v0z" />
    <glyph glyph-name="f_k" horiz-adv-x="1537" 
d="M782 1390q-52 19 -105 31.5t-100.5 19t-87 9t-63.5 2.5q-12 -30 -24 -70.5t-21.5 -93.5t-16.5 -119.5t-9 -148.5l-4 -140q75 2 139.5 4.5t112.5 6.5l-4 -125q-48 0 -113.5 5.5t-137.5 13.5l-4.5 -149.5l-5 -162.5t-5.5 -161.5l-5.5 -146.5l-4.5 -116.5t-4 -71.5
q-10 -139 -41 -238t-77.5 -162t-107 -92.5t-129.5 -29.5q-38 0 -87.5 5.5t-92.5 16.5l4 154q49 -19 99 -32t94.5 -21t81 -11.5t59.5 -3.5q12 30 23 69.5t20.5 91.5t16.5 117.5t10 147.5q1 25 2.5 76l3.5 118.5l4.5 147.5l5 162l5 162l4.5 148q-56 8 -103 16t-76 15l2 43h180
q2 54 4 94.5t4 60.5q10 143 41.5 242.5t79.5 161.5t112 90t141 28q20 0 44.5 -1.5t50.5 -4.5t51.5 -7t48.5 -9l110 22l35 -34q-23 -211 -35 -436.5t-17 -471.5l17 -4q74 107 177.5 182.5t231.5 106.5l76 -35q0 -66 -11 -131t-39.5 -125.5t-78 -116t-127.5 -102.5l211 -309
q34 5 69 15t83 32l20 -39q-31 -21 -69.5 -40.5t-77 -34t-71.5 -23t-52 -8.5l-246 366q61 43 105.5 95.5t74.5 108.5t45 113.5t17 110.5q-24 -3 -60 -18t-75.5 -40t-79 -58t-71 -70t-51.5 -76.5t-20 -77.5q-1 -32 -1.5 -84t-0.5 -112v-122v-116h-159q20 169 31 352.5
t16.5 365.5t6.5 354t1 318z" />
    <glyph glyph-name="f_j" horiz-adv-x="987" 
d="M866 862q-29 -232 -39 -451.5t-16 -408.5q-1 -33 -20 -79.5t-49 -99t-67 -108l-73 -105l-68.5 -90.5l-52.5 -65l-40 33q14 20 36.5 57l48.5 83.5l53 98.5t49 102.5t37 95.5t17 77q7 99 10.5 204t6 206t3.5 193t3 164q-79 3 -170 8.5l-187 11.5q-4 -69 -7 -149.5
t-5.5 -163.5l-5 -163l-4.5 -147l-3.5 -117t-3.5 -72q-10 -139 -41 -238t-77.5 -162t-107 -92.5t-129.5 -29.5q-38 0 -87.5 5.5t-92.5 16.5l4 154q49 -19 99 -32t94.5 -21t81 -11.5t59.5 -3.5q12 30 23 69.5t20.5 91.5t16.5 117.5t10 147.5q1 25 2.5 76l3.5 118.5l4.5 147.5
l5 162l5 162l4.5 148q-56 8 -103 16t-76 15l2 43h180q2 54 4 94.5t4 60.5q11 150 44 250.5t85 161t121 85.5t152 25q43 0 97 -5.5t102 -16.5l-6 -149q-59 19 -118 31.5t-112 19.5t-96.5 9.5t-71.5 2.5q-14 -34 -25.5 -74t-20.5 -91t-15.5 -115t-8.5 -146l-4 -140
q87 1 152.5 2.5t119.5 3.5t103 5t105 6l35 -35v0z" />
    <glyph glyph-name="foundryicon" horiz-adv-x="0" 
 />
    <glyph glyph-name="noBreak" horiz-adv-x="447" 
 />
    <glyph glyph-name="nonmarkingreturn" horiz-adv-x="447" 
 />
    <glyph glyph-name="acute.case" horiz-adv-x="664" 
d="M412 1591l342 301q20 -34 45 -64.5t53 -53.5l-403 -228z" />
    <glyph glyph-name="circumflex.case" horiz-adv-x="967" 
d="M346 1546l-39 41l307 268h82l289 -268l-43 -41l-291 178z" />
    <glyph glyph-name="dieresis.case" horiz-adv-x="913" 
d="M356 1548l-34 34q4 38 6.5 64.5t3.5 44.5q1 20 1 35l135 29l33 -35q-5 -38 -7 -65t-3 -44q-1 -20 -1 -33zM704 1548l-34 34q4 38 6.5 64.5t3.5 44.5q1 20 1 35l135 29l33 -35q-5 -38 -7 -65t-3 -44q-1 -20 -1 -33z" />
    <glyph glyph-name="tilde.case" horiz-adv-x="977" 
d="M702 1554q-44 15 -79 30.5t-65 32.5t-58 36t-56 41l-55 -49l-49.5 -42.5l-46.5 -39.5l-29 30l180 199h60q34 -21 67 -38.5t67.5 -31t73 -25t83.5 -20.5q21 21 44 41l43 37l44 37l30 -31l-190 -207h-64z" />
    <glyph glyph-name="ring.case" horiz-adv-x="700" 
d="M489 1870q-28 0 -50 -11t-37 -29.5t-23 -42.5t-8 -50q0 -23 7 -46t22 -42t37.5 -31t54.5 -12q55 0 86.5 34.5t31.5 96.5q0 21 -7 44.5t-22 43t-38 32.5t-54 13zM287 1722q0 40 16 77t45 65.5t71 45.5t93 17q48 0 83.5 -14t58 -37t33.5 -53.5t11 -63.5q0 -45 -18 -84
t-48.5 -67.5t-71 -45t-85.5 -16.5q-52 0 -88 15t-58 40t-32 56.5t-10 64.5z" />
    <glyph glyph-name="caron.case" horiz-adv-x="965" 
d="M946 1892l39 -41l-307 -268h-82l-289 268l43 41l291 -178z" />
    <glyph glyph-name="grave.case" horiz-adv-x="682" 
d="M653 1546l-405 213q25 31 46 63t40 64l358 -291z" />
    </font>
</defs>
</svg>
